<svg xmlns="http://www.w3.org/2000/svg" width="163.4639434814453" height="243.54171752929688" viewBox="-1.5586605072021484 -20.833038330078125 163.4639434814453 243.54171752929688"><title>Neo4j Graph Visualization</title><desc>Created using Neo4j (http://www.neo4j.com/)</desc><g class="layer relationships"><g class="relationship" transform="translate(132.90529150114745 8.166961248303581) rotate(522.0996913156389)"><path class="outline" fill="#A5ABB6" stroke="none" d="M 21.40063509461097,12.933012701892217 L 21.90063509461097,12.06698729810778 A 59.93942352718319 59.93942352718319 0 0 0 39.204242834248326,18.743795012862122 L 38.99292775514667,19.7212130080639 A 60.93942352718319 60.93942352718319 0 0 1 21.40063509461097,12.933012701892217 Z M 61.053807670556196,20.401408025227994 L 60.90310948076684,19.41282820771491 A 59.93942352718319 59.93942352718319 0 0 0 78.58518516178027,13.814721235000603 L 77.24809330812928,11.129170011340893 L 85.07431999259477,11.142432113758243 L 80.3679742999816,17.395456199880215 L 79.03088244633061,14.709904976220505 A 60.93942352718319 60.93942352718319 0 0 1 61.053807670556196,20.401408025227994"/><text text-anchor="middle" pointer-events="none" font-size="8px" fill="#000000" x="50.00772542682827" y="23.56863942210932" transform="rotate(180 50.00772542682827 20.56863942210932)" font-family="sans-serif">road</text></g><g class="relationship" transform="translate(30.65292665223448 41.19418356918594) rotate(451.7252802801984)"><path class="outline" fill="#A5ABB6" stroke="none" d="M 25 0.5 L 40.167772879797745 0.5 L 40.167772879797745 -0.5 L 25 -0.5 Z M 59.503710379797745 0.5 L 74.67148325959549 0.5 L 74.67148325959549 3.5 L 81.67148325959549 0 L 74.67148325959549 -3.5 L 74.67148325959549 -0.5 L 59.503710379797745 -0.5 Z"/><text text-anchor="middle" pointer-events="none" font-size="8px" fill="#000000" x="49.835741629797745" y="3" transform="rotate(180 49.835741629797745 0)" font-family="sans-serif">trek</text></g><g class="relationship" transform="translate(27.441339386238663 147.81730980376534) rotate(385.31538289456563)"><path class="outline" fill="#A5ABB6" stroke="none" d="M 25 0.5 L 40.493519998968864 0.5 L 40.493519998968864 -0.5 L 25 -0.5 Z M 59.829457498968864 0.5 L 75.32297749793773 0.5 L 75.32297749793773 3.5 L 82.32297749793773 0 L 75.32297749793773 -3.5 L 75.32297749793773 -0.5 L 59.829457498968864 -0.5 Z"/><text text-anchor="middle" pointer-events="none" font-size="8px" fill="#000000" x="50.161488748968864" y="3" font-family="sans-serif">trek</text></g><g class="relationship" transform="translate(132.90529150114745 8.166961248303581) rotate(522.0996913156389)"><path class="outline" fill="#A5ABB6" stroke="none" d="M 25 0.5 L 26.480863011546155 0.5 L 26.480863011546155 -0.5 L 25 -0.5 Z M 73.97305051154615 0.5 L 75.45391352309231 0.5 L 75.45391352309231 3.5 L 82.45391352309231 0 L 75.45391352309231 -3.5 L 75.45391352309231 -0.5 L 73.97305051154615 -0.5 Z"/><text text-anchor="middle" pointer-events="none" font-size="8px" fill="#000000" x="50.226956761546155" y="3" transform="rotate(180 50.226956761546155 0)" font-family="sans-serif">PublicTra…</text></g><g class="relationship" transform="translate(132.90529150114745 8.166961248303581) rotate(522.0996913156389)"><path class="outline" fill="#A5ABB6" stroke="none" d="M 21.40063509461097,-12.933012701892217 L 21.90063509461097,-12.06698729810778 A 59.93942352718319 59.93942352718319 0 0 1 40.50410030795835,-19.009796635905367 L 40.31447141462925,-19.991652471970305 A 60.93942352718319 60.93942352718319 0 0 0 21.40063509461097,-12.933012701892217 Z M 59.71811339612625,-20.589917846754 L 59.589333599999314,-19.598244632378666 A 59.93942352718319 59.93942352718319 0 0 1 78.58518516178027,-13.814721235000603 L 77.24809330812928,-11.129170011340893 L 85.07431999259477,-11.142432113758243 L 80.3679742999816,-17.395456199880215 L 79.03088244633061,-14.709904976220505 A 60.93942352718319 60.93942352718319 0 0 0 59.71811339612625,-20.589917846754"/><text text-anchor="middle" pointer-events="none" font-size="8px" fill="#000000" x="50.007725426828245" y="-17.56863942210932" transform="rotate(180 50.007725426828245 -20.56863942210932)" font-family="sans-serif">trek</text></g></g><g class="layer nodes"><g class="node" transform="translate(132.90529150114745,8.166961248303581)"><circle class="outline" cx="0" cy="0" r="25" fill="#F16667" stroke="#eb2728" stroke-width="2px"/><text text-anchor="middle" pointer-events="none" font-family="sans-serif" dy="1.5625" font-size="25" fill="#FFFFFF"/><text text-anchor="middle" pointer-events="none" x="0" y="5" font-size="10px" fill="#FFFFFF" font-family="sans-serif"> Darjeeling</text></g><g class="node" transform="translate(124.45785300318025,193.70867701631022)"><circle class="outline" cx="0" cy="0" r="25" fill="#D9C8AE" stroke="#c0a378" stroke-width="2px"/><text text-anchor="middle" pointer-events="none" font-family="sans-serif" dy="1.5625" font-size="25" fill="#2A2C34"/><text text-anchor="middle" pointer-events="none" x="0" y="5" font-size="10px" fill="#2A2C34" font-family="sans-serif"> Sandak…</text></g><g class="node" transform="translate(30.65292665223448,41.19418356918594)"><circle class="outline" cx="0" cy="0" r="25" fill="#F16667" stroke="#eb2728" stroke-width="2px"/><text text-anchor="middle" pointer-events="none" font-family="sans-serif" dy="1.5625" font-size="25" fill="#FFFFFF"/><text text-anchor="middle" pointer-events="none" x="0" y="5" font-size="10px" fill="#FFFFFF" font-family="sans-serif"> Rimbik</text></g><g class="node" transform="translate(27.441339386238663,147.81730980376534)"><circle class="outline" cx="0" cy="0" r="25" fill="#8DCC93" stroke="#5db665" stroke-width="2px"/><text text-anchor="middle" pointer-events="none" font-family="sans-serif" dy="1.5625" font-size="25" fill="#2A2C34"/><text text-anchor="middle" pointer-events="none" x="0" y="5" font-size="10px" fill="#2A2C34" font-family="sans-serif"> BhikeBh…</text></g></g></svg>