<svg xmlns="http://www.w3.org/2000/svg" width="397.8828430175781" height="409.2587585449219" viewBox="-98.50186157226562 -115.1163101196289 397.8828430175781 409.2587585449219"><title>Neo4j Graph Visualization</title><desc>Created using Neo4j (http://www.neo4j.com/)</desc><g class="layer relationships"><g class="relationship" transform="translate(104.81607942825921 -86.11630689216342) rotate(450.31602468658247)"><path class="outline" fill="#A5ABB6" stroke="none" d="M 21.40063509461097,12.933012701892217 L 21.90063509461097,12.06698729810778 A 64.37027994893306 64.37027994893306 0 0 0 41.33768874419196,19.41600826529759 L 41.13964569800668,20.396201589013714 A 65.37027994893306 65.37027994893306 0 0 1 21.40063509461097,12.933012701892217 Z M 63.205027850017544,21.051769701307677 L 63.065526339727796,20.061547843021934 A 64.37027994893306 64.37027994893306 0 0 0 82.904593550518,13.879430409760586 L 81.5614821718987,11.196884636689159 L 89.38771891745454,11.192594821827464 L 84.69540872201038,17.456158107189154 L 83.35229734339109,14.773612334117727 A 65.37027994893306 65.37027994893306 0 0 1 63.205027850017544,21.051769701307677"/><text text-anchor="middle" pointer-events="none" font-size="8px" fill="#000000" x="52.15931261901946" y="24.16235803047138" transform="rotate(180 52.15931261901946 21.16235803047138)" font-family="sans-serif">road</text></g><g class="relationship" transform="translate(104.19974893827526 25.624260391713463) rotate(412.07994656992526)"><path class="outline" fill="#A5ABB6" stroke="none" d="M 25 0.5 L 49.92081237873153 0.5 L 49.92081237873153 -0.5 L 25 -0.5 Z M 69.25674987873154 0.5 L 94.17756225746307 0.5 L 94.17756225746307 3.5 L 101.17756225746307 0 L 94.17756225746307 -3.5 L 94.17756225746307 -0.5 L 69.25674987873154 -0.5 Z"/><text text-anchor="middle" pointer-events="none" font-size="8px" fill="#000000" x="59.58878112873153" y="3" font-family="sans-serif">trek</text></g><g class="relationship" transform="translate(181.74360075550476 125.16183250688775) rotate(476.1552126581881)"><path class="outline" fill="#A5ABB6" stroke="none" d="M 25 0.5 L 47.59864895017889 0.5 L 47.59864895017889 -0.5 L 25 -0.5 Z M 66.9345864501789 0.5 L 89.53323540035778 0.5 L 89.53323540035778 3.5 L 96.53323540035778 0 L 89.53323540035778 -3.5 L 89.53323540035778 -0.5 L 66.9345864501789 -0.5 Z"/><text text-anchor="middle" pointer-events="none" font-size="8px" fill="#000000" x="57.26661770017889" y="3" transform="rotate(180 57.26661770017889 0)" font-family="sans-serif">trek</text></g><g class="relationship" transform="translate(104.81607942825921 -86.11630689216342) rotate(450.31602468658247)"><path class="outline" fill="#A5ABB6" stroke="none" d="M 25 0.5 L 26.400430388191538 0.5 L 26.400430388191538 -0.5 L 25 -0.5 Z M 78.34183663819154 0.5 L 79.74226702638308 0.5 L 79.74226702638308 3.5 L 86.74226702638308 0 L 79.74226702638308 -3.5 L 79.74226702638308 -0.5 L 78.34183663819154 -0.5 Z"/><text text-anchor="middle" pointer-events="none" font-size="8px" fill="#000000" x="52.37113351319154" y="3" transform="rotate(180 52.37113351319154 0)" font-family="sans-serif">PublicTran…</text></g><g class="relationship" transform="translate(104.81607942825921 -86.11630689216342) rotate(450.31602468658247)"><path class="outline" fill="#A5ABB6" stroke="none" d="M 21.40063509461097,-12.933012701892217 L 21.90063509461097,-12.06698729810778 A 64.37027994893306 64.37027994893306 0 0 1 42.641591278500535,-19.665488911359986 L 42.46380451417923,-20.649557946759515 A 65.37027994893306 65.37027994893306 0 0 0 21.40063509461097,-12.933012701892217 Z M 61.86816335343034,-21.22606638005503 L 61.74911248978967,-20.233178223278856 A 64.37027994893306 64.37027994893306 0 0 1 82.904593550518,-13.879430409760586 L 81.5614821718987,-11.196884636689159 L 89.38771891745454,-11.192594821827464 L 84.69540872201038,-17.456158107189154 L 83.35229734339109,-14.773612334117727 A 65.37027994893306 65.37027994893306 0 0 0 61.86816335343034,-21.22606638005503"/><text text-anchor="middle" pointer-events="none" font-size="8px" fill="#000000" x="52.15931261901946" y="-18.16235803047138" transform="rotate(180 52.15931261901946 -21.16235803047138)" font-family="sans-serif">trek</text></g><g class="relationship" transform="translate(104.81607942825921 -86.11630689216342) rotate(387.3828282641871)"><path class="outline" fill="#A5ABB6" stroke="none" d="M 24.018736134675446,-6.953439040707552 L 24.277555179777966,-5.987513214418485 A 107.97006119880783 107.97006119880783 0 0 1 39.59372597126185,-8.925422673282526 L 39.47676264636015,-9.918558907959294 A 108.97006119880783 108.97006119880783 0 0 0 24.018736134675446,-6.953439040707552 Z M 61.54927877799714,-10.266608982017488 L 61.46368631933029,-9.270278750106712 A 107.97006119880783 107.97006119880783 0 0 1 76.86487213792905,-6.81673537706866 L 76.18016541797157,-3.8959175622015527 L 83.79423149261189,-5.705889332979044 L 77.7778144312057,-10.711159130224804 L 77.09310771124821,-7.790341315357695 A 108.97006119880783 108.97006119880783 0 0 0 61.54927877799714,-10.266608982017488"/><text text-anchor="middle" pointer-events="none" font-size="8px" fill="#000000" x="50.512067710317204" y="-7.153021078975513" font-family="sans-serif">road</text></g><g class="relationship" transform="translate(200.83435556018804 -36.38166327437381) rotate(412.2887403594214)"><path class="outline" fill="#A5ABB6" stroke="none" d="M 21.40063509461097,-12.933012701892217 L 21.90063509461097,-12.06698729810778 A 66.38666225323361 66.38666225323361 0 0 1 42.31110182957531,-19.718808729781884 L 42.118550133831185,-20.70009556066573 A 67.38666225323361 67.38666225323361 0 0 0 21.40063509461097,-12.933012701892217 Z M 64.18545685436854,-21.345006559150022 L 64.05054157100021,-20.3541494219634 A 66.38666225323361 66.38666225323361 0 0 1 84.87304346538372,-13.907372054959955 L 83.52733291600124,-11.226129224241202 L 91.35356182862455,-11.214254578187301 L 86.66732419789368,-17.48236249591829 L 85.3216136485112,-14.801119665199538 A 67.38666225323361 67.38666225323361 0 0 0 64.18545685436854,-21.345006559150022"/><text text-anchor="middle" pointer-events="none" font-size="8px" fill="#000000" x="53.14002066211097" y="-18.432567382110634" font-family="sans-serif">road</text></g><g class="relationship" transform="translate(270.38097699191326 53.56461279653754) rotate(501.0703077063629)"><path class="outline" fill="#A5ABB6" stroke="none" d="M 21.40063509461097,12.933012701892217 L 21.90063509461097,12.06698729810778 A 66.63879881634122 66.63879881634122 0 0 0 43.73862672058599,19.998358340626893 L 43.56633358226219,20.98340406265534 A 67.63879881634122 67.63879881634122 0 0 1 21.40063509461097,12.933012701892217 Z M 62.97076685396699,21.5493476798228 L 62.85617681856097,20.555934813092335 A 66.63879881634122 66.63879881634122 0 0 0 85.11930215329006,13.910803121364316 L 83.77327244470038,11.229720499811222 L 91.59949988834555,11.216914238247266 L 86.91400843140963,17.485579950101773 L 85.56797872281994,14.80449732854868 A 67.63879881634122 67.63879881634122 0 0 1 62.97076685396699,21.5493476798228"/><text text-anchor="middle" pointer-events="none" font-size="8px" fill="#000000" x="53.262717652081264" y="24.46635628441682" transform="rotate(180 53.262717652081264 21.46635628441682)" font-family="sans-serif">trek</text></g><g class="relationship" transform="translate(104.81607942825921 -86.11630689216342) rotate(387.3828282641871)"><path class="outline" fill="#A5ABB6" stroke="none" d="M 24.018736134675446,6.953439040707552 L 24.277555179777966,5.987513214418485 A 107.97006119880783 107.97006119880783 0 0 0 40.917235919929226,9.073025143012785 L 40.81253071486161,10.067528446190678 A 108.97006119880783 108.97006119880783 0 0 1 24.018736134675446,6.953439040707552 Z M 60.20947792942341,10.373388859850309 L 60.136180598737894,9.376078726885453 A 107.97006119880783 107.97006119880783 0 0 0 76.86487213792905,6.81673537706866 L 76.18016541797157,3.8959175622015527 L 83.79423149261189,5.705889332979044 L 77.7778144312057,10.711159130224804 L 77.09310771124821,7.790341315357695 A 108.97006119880783 108.97006119880783 0 0 1 60.20947792942341,10.373388859850309"/><text text-anchor="middle" pointer-events="none" font-size="8px" fill="#000000" x="50.512067710317226" y="13.153021078975513" font-family="sans-serif">trek</text></g><g class="relationship" transform="translate(200.83435556018804 -36.38166327437381) rotate(412.2887403594214)"><path class="outline" fill="#A5ABB6" stroke="none" d="M 25 0.5 L 30.11620416730708 0.5 L 30.11620416730708 -0.5 L 25 -0.5 Z M 76.58104791730707 0.5 L 81.69725208461416 0.5 L 81.69725208461416 3.5 L 88.69725208461416 0 L 81.69725208461416 -3.5 L 81.69725208461416 -0.5 L 76.58104791730707 -0.5 Z"/><text text-anchor="middle" pointer-events="none" font-size="8px" fill="#000000" x="53.34862604230708" y="3" font-family="sans-serif">twowheeler</text></g><g class="relationship" transform="translate(200.83435556018804 -36.38166327437381) rotate(412.2887403594214)"><path class="outline" fill="#A5ABB6" stroke="none" d="M 21.40063509461097,12.933012701892217 L 21.90063509461097,12.06698729810778 A 66.38666225323361 66.38666225323361 0 0 0 43.616612459425916,19.961447542586114 L 43.443726018501664,20.94638930662323 A 67.38666225323361 67.38666225323361 0 0 1 21.40063509461097,12.933012701892217 Z M 62.848159034432086,21.51348882944299 L 62.73308889215282,20.52013146053902 A 66.38666225323361 66.38666225323361 0 0 0 84.87304346538372,13.907372054959955 L 83.52733291600124,11.226129224241202 L 91.35356182862455,11.214254578187301 L 86.66732419789368,17.48236249591829 L 85.3216136485112,14.801119665199538 A 67.38666225323361 67.38666225323361 0 0 1 62.848159034432086,21.51348882944299"/><text text-anchor="middle" pointer-events="none" font-size="8px" fill="#000000" x="53.14002066211099" y="24.432567382110634" font-family="sans-serif">trek</text></g><g class="relationship" transform="translate(270.38097699191326 53.56461279653754) rotate(501.0703077063629)"><path class="outline" fill="#A5ABB6" stroke="none" d="M 25 0.5 L 42.465068158977346 0.5 L 42.465068158977346 -0.5 L 25 -0.5 Z M 64.47678690897735 0.5 L 81.94185506795469 0.5 L 81.94185506795469 3.5 L 88.94185506795469 0 L 81.94185506795469 -3.5 L 81.94185506795469 -0.5 L 64.47678690897735 -0.5 Z"/><text text-anchor="middle" pointer-events="none" font-size="8px" fill="#000000" x="53.470927533977346" y="3" transform="rotate(180 53.470927533977346 0)" font-family="sans-serif">road</text></g><g class="relationship" transform="translate(104.19974893827526 25.624260391713463) rotate(519.7340161505729)"><path class="outline" fill="#A5ABB6" stroke="none" d="M 24.018736134675446,-6.953439040707552 L 24.277555179777966,-5.987513214418485 A 138.81454467849554 138.81454467849554 0 0 1 35.264020265788275,-8.458461851881424 L 35.08434613386078,-9.442188036506025 A 139.81454467849554 139.81454467849554 0 0 0 24.018736134675446,-6.953439040707552 Z M 81.49563824210793,-10.087013482945565 L 81.34336341825997,-9.098675292839516 A 138.81454467849554 138.81454467849554 0 0 1 92.39423584903966,-6.933907228187599 L 91.69858469424639,-4.015676690544145 L 99.3193822960066,-5.797092956610554 L 93.32177072209734,-10.82488127837887 L 92.62611956730407,-7.906650740735416 A 139.81454467849554 139.81454467849554 0 0 0 81.49563824210793,-10.087013482945565"/><text text-anchor="middle" pointer-events="none" font-size="8px" fill="#000000" x="58.26999274942128" y="-8.204059748630897" transform="rotate(180 58.26999274942128 -11.204059748630897)" font-family="sans-serif">twowheeler</text></g><g class="relationship" transform="translate(-11.784380840052123 68.44982860057306) rotate(425.2851728344734)"><path class="outline" fill="#A5ABB6" stroke="none" d="M 24.018736134675446,-6.953439040707552 L 24.277555179777966,-5.987513214418485 A 113.18022088467254 113.18022088467254 0 0 1 42.21952124129376,-9.273370215716227 L 42.11922782833149,-10.268328120009855 A 114.18022088467254 114.18022088467254 0 0 0 24.018736134675446,-6.953439040707552 Z M 61.51450285577098,-10.567369046531468 L 61.44493081500436,-9.569792116593945 A 113.18022088467254 113.18022088467254 0 0 1 79.47966865956205,-6.838632424514305 L 78.792916595021,-3.9182948409721923 L 86.4082483652505,-5.722933871175512 L 80.39533807895013,-10.732415869237123 L 79.70858601440908,-7.81207828569501 A 114.18022088467254 114.18022088467254 0 0 0 61.51450285577098,-10.567369046531468"/><text text-anchor="middle" pointer-events="none" font-size="8px" fill="#000000" x="51.81821170246823" y="-7.33052598539912" font-family="sans-serif">trek</text></g><g class="relationship" transform="translate(34.518090554246626 169.0500380605363) rotate(394.8452675822905)"><path class="outline" fill="#A5ABB6" stroke="none" d="M 24.018736134675446,6.953439040707552 L 24.277555179777966,5.987513214418485 A 119.89531086916014 119.89531086916014 0 0 0 30.55521616114617,7.489719402724589 L 30.34875663649411,8.468174544609198 A 120.89531086916014 120.89531086916014 0 0 1 24.018736134675446,6.953439040707552 Z M 76.7123363746739,9.163091709105615 L 76.53529401323249,8.178888476914608 A 119.89531086916014 119.89531086916014 0 0 0 82.85515634142145,6.865499356388665 L 82.16589474085029,3.9457530581671745 L 89.78277463736678,5.743846671426233 L 83.77417180884964,10.758494420683986 L 83.08491020827849,7.838748122462495 A 120.89531086916014 120.89531086916014 0 0 1 76.7123363746739,9.163091709105615"/><text text-anchor="middle" pointer-events="none" font-size="8px" fill="#000000" x="53.504411297549446" y="13.5593255604187" font-family="sans-serif">twowheeler</text></g><g class="relationship" transform="translate(104.19974893827526 25.624260391713463) rotate(519.7340161505729)"><path class="outline" fill="#A5ABB6" stroke="none" d="M 24.018736134675446,6.953439040707552 L 24.277555179777966,5.987513214418485 A 138.81454467849554 138.81454467849554 0 0 0 48.65696950331618,10.23629417022184 L 48.57377625002101,11.232827602980706 A 139.81454467849554 139.81454467849554 0 0 1 24.018736134675446,6.953439040707552 Z M 67.96166731406797,11.50219751153088 L 67.90619193951308,10.50373745583613 A 138.81454467849554 138.81454467849554 0 0 0 92.39423584903966,6.933907228187599 L 91.69858469424639,4.015676690544145 L 99.3193822960066,5.797092956610554 L 93.32177072209734,10.82488127837887 L 92.62611956730407,7.906650740735416 A 139.81454467849554 139.81454467849554 0 0 1 67.96166731406797,11.50219751153088"/><text text-anchor="middle" pointer-events="none" font-size="8px" fill="#000000" x="58.2699927494213" y="14.204059748630897" transform="rotate(180 58.2699927494213 11.204059748630897)" font-family="sans-serif">trek</text></g><g class="relationship" transform="translate(-11.784380840052123 68.44982860057306) rotate(425.2851728344734)"><path class="outline" fill="#A5ABB6" stroke="none" d="M 24.018736134675446,6.953439040707552 L 24.277555179777966,5.987513214418485 A 113.18022088467254 113.18022088467254 0 0 0 28.895393630705126,7.1214496797055205 L 28.67737534049451,8.097394363144915 A 114.18022088467254 114.18022088467254 0 0 1 24.018736134675446,6.953439040707552 Z M 75.01689404187866,8.811867995894247 L 74.82906692084077,7.829665892148469 A 113.18022088467254 113.18022088467254 0 0 0 79.47966865956205,6.838632424514305 L 78.792916595021,3.9182948409721923 L 86.4082483652505,5.722933871175512 L 80.39533807895013,10.732415869237123 L 79.70858601440908,7.81207828569501 A 114.18022088467254 114.18022088467254 0 0 1 75.01689404187866,8.811867995894247"/><text text-anchor="middle" pointer-events="none" font-size="8px" fill="#000000" x="51.81821170246826" y="13.33052598539912" font-family="sans-serif">twowheeler</text></g><g class="relationship" transform="translate(34.518090554246626 169.0500380605363) rotate(394.8452675822905)"><path class="outline" fill="#A5ABB6" stroke="none" d="M 24.018736134675446,-6.953439040707552 L 24.277555179777966,-5.987513214418485 A 119.89531086916014 119.89531086916014 0 0 1 43.901301208015816,-9.528932272390904 L 43.80615617056196,-10.524395693038755 A 120.89531086916014 120.89531086916014 0 0 0 24.018736134675446,-6.953439040707552 Z M 63.19935677208762,-10.815069278827991 L 63.13408863501799,-9.817201516905882 A 119.89531086916014 119.89531086916014 0 0 1 82.85515634142145,-6.865499356388665 L 82.16589474085029,-3.9457530581671745 L 89.78277463736678,-5.743846671426233 L 83.77417180884964,-10.758494420683986 L 83.08491020827849,-7.838748122462495 A 120.89531086916014 120.89531086916014 0 0 0 63.19935677208762,-10.815069278827991"/><text text-anchor="middle" pointer-events="none" font-size="8px" fill="#000000" x="53.50441129754944" y="-7.559325560418699" font-family="sans-serif">trek</text></g><g class="relationship" transform="translate(270.38097699191326 53.56461279653754) rotate(501.0703077063629)"><path class="outline" fill="#A5ABB6" stroke="none" d="M 21.40063509461097,-12.933012701892217 L 21.90063509461097,-12.06698729810778 A 66.63879881634122 66.63879881634122 0 0 1 30.8000979759701,-16.359289786624053 L 30.43364574452887,-17.289726652871167 A 67.63879881634122 67.63879881634122 0 0 0 21.40063509461097,-12.933012701892217 Z M 76.29640552772162,-18.627345525916596 L 75.98480373416865,-17.677132748558506 A 66.63879881634122 66.63879881634122 0 0 1 85.11930215329006,-13.910803121364316 L 83.77327244470038,-11.229720499811222 L 91.59949988834555,-11.216914238247266 L 86.91400843140963,-17.485579950101773 L 85.56797872281994,-14.80449732854868 A 67.63879881634122 67.63879881634122 0 0 0 76.29640552772162,-18.627345525916596"/><text text-anchor="middle" pointer-events="none" font-size="8px" fill="#000000" x="53.26271765208125" y="-18.46635628441682" transform="rotate(180 53.26271765208125 -21.46635628441682)" font-family="sans-serif">twowheeler</text></g><g class="relationship" transform="translate(-11.784380840052123 68.44982860057306) rotate(479.14168557160804)"><path class="outline" fill="#A5ABB6" stroke="none" d="M 24.018736134675446,-6.953439040707552 L 24.277555179777966,-5.987513214418485 A 128.6650343470844 128.6650343470844 0 0 1 32.73261093471764,-7.949938528802363 L 32.53950559184857,-8.931116558802742 A 129.6650343470844 129.6650343470844 0 0 0 24.018736134675446,-6.953439040707552 Z M 78.92826488139036,-9.601939910062683 L 78.76361179290494,-8.615588370066817 A 128.6650343470844 128.6650343470844 0 0 1 87.27187710134083,-6.898467997192709 L 86.57953607618708,-3.9794503705091935 L 94.19830840112799,-5.769508542947888 L 88.1949984682125,-10.790491499437396 L 87.50265744305875,-7.87147387275388 A 129.6650343470844 129.6650343470844 0 0 0 78.92826488139036,-9.601939910062683"/><text text-anchor="middle" pointer-events="none" font-size="8px" fill="#000000" x="55.71086873577106" y="-7.858164714497178" transform="rotate(180 55.71086873577106 -10.858164714497178)" font-family="sans-serif">twowheeler</text></g><g class="relationship" transform="translate(-69.50186224347178 171.97036663223045) rotate(358.39186081451385)"><path class="outline" fill="#A5ABB6" stroke="none" d="M 21.40063509461097,12.933012701892217 L 21.90063509461097,12.06698729810778 A 56.42537642937526 56.42537642937526 0 0 0 38.81443659814286,18.483709168198487 L 38.61419182484839,19.46345506932196 A 57.42537642937526 57.42537642937526 0 0 1 21.40063509461097,12.933012701892217 Z M 58.01653185471006,20.080112065931395 L 57.87890613874926,19.089627758985408 A 56.42537642937526 56.42537642937526 0 0 0 75.16604043604205,13.759900876082305 L 73.83404841159712,11.07181656810104 L 81.66023582540582,11.09993353704103 L 76.94202980196862,17.344013286723992 L 75.61003777752369,14.655928978742725 A 57.42537642937526 57.42537642937526 0 0 1 58.01653185471006,20.080112065931395"/><text text-anchor="middle" pointer-events="none" font-size="8px" fill="#000000" x="48.30499939389187" y="23.097824948415237" font-family="sans-serif">trek</text></g><g class="relationship" transform="translate(-11.784380840052123 68.44982860057306) rotate(479.14168557160804)"><path class="outline" fill="#A5ABB6" stroke="none" d="M 24.018736134675446,6.953439040707552 L 24.277555179777966,5.987513214418485 A 128.6650343470844 128.6650343470844 0 0 0 46.102759432555104,9.858879240215487 L 46.0135684792145,10.854893785210805 A 129.6650343470844 129.6650343470844 0 0 1 24.018736134675446,6.953439040707552 Z M 65.40420866709574,11.135299953280963 L 65.34385552564225,10.137122865627333 A 128.6650343470844 128.6650343470844 0 0 0 87.27187710134083,6.898467997192709 L 86.57953607618708,3.9794503705091935 L 94.19830840112799,5.769508542947888 L 88.1949984682125,10.790491499437396 L 87.50265744305875,7.87147387275388 A 129.6650343470844 129.6650343470844 0 0 1 65.40420866709574,11.135299953280963"/><text text-anchor="middle" pointer-events="none" font-size="8px" fill="#000000" x="55.71086873577104" y="13.858164714497178" transform="rotate(180 55.71086873577104 10.858164714497178)" font-family="sans-serif">trek</text></g><g class="relationship" transform="translate(-69.50186224347178 171.97036663223045) rotate(358.39186081451385)"><path class="outline" fill="#A5ABB6" stroke="none" d="M 25 0.5 L 37.52460982095819 0.5 L 37.52460982095819 -0.5 L 25 -0.5 Z M 59.53632857095819 0.5 L 72.06093839191638 0.5 L 72.06093839191638 3.5 L 79.06093839191638 0 L 72.06093839191638 -3.5 L 72.06093839191638 -0.5 L 59.53632857095819 -0.5 Z"/><text text-anchor="middle" pointer-events="none" font-size="8px" fill="#000000" x="48.53046919595819" y="3" font-family="sans-serif">road</text></g><g class="relationship" transform="translate(-69.50186224347178 171.97036663223045) rotate(358.39186081451385)"><path class="outline" fill="#A5ABB6" stroke="none" d="M 21.40063509461097,-12.933012701892217 L 21.90063509461097,-12.06698729810778 A 56.42537642937526 56.42537642937526 0 0 1 26.085013264597997,-14.254712751103597 L 25.65917100061637,-15.159510168323052 A 57.42537642937526 57.42537642937526 0 0 0 21.40063509461097,-12.933012701892217 Z M 71.21871159454848,-16.60751125614651 L 70.85118438623829,-15.677498486797766 A 56.42537642937526 56.42537642937526 0 0 1 75.16604043604205,-13.759900876082305 L 73.83404841159712,-11.07181656810104 L 81.66023582540582,-11.09993353704103 L 76.94202980196862,-17.344013286723992 L 75.61003777752369,-14.655928978742725 A 57.42537642937526 57.42537642937526 0 0 0 71.21871159454848,-16.60751125614651"/><text text-anchor="middle" pointer-events="none" font-size="8px" fill="#000000" x="48.304999393891855" y="-17.097824948415237" font-family="sans-serif">twowheeler</text></g><g class="relationship" transform="translate(-69.50186224347178 171.97036663223045) rotate(409.1039875629606)"><path class="outline" fill="#A5ABB6" stroke="none" d="M 25 0.5 L 48.46200444793845 0.5 L 48.46200444793845 -0.5 L 25 -0.5 Z M 67.79794194793845 0.5 L 91.2599463958769 0.5 L 91.2599463958769 3.5 L 98.2599463958769 0 L 91.2599463958769 -3.5 L 91.2599463958769 -0.5 L 67.79794194793845 -0.5 Z"/><text text-anchor="middle" pointer-events="none" font-size="8px" fill="#000000" x="58.12997319793845" y="3" font-family="sans-serif">trek</text></g><g class="relationship" transform="translate(11.194971140683329 265.14244113572295) rotate(345.2066265994265)"><path class="outline" fill="#A5ABB6" stroke="none" d="M 25 0.5 L 47.325333008440225 0.5 L 47.325333008440225 -0.5 L 25 -0.5 Z M 66.66127050844023 0.5 L 88.98660351688045 0.5 L 88.98660351688045 3.5 L 95.98660351688045 0 L 88.98660351688045 -3.5 L 88.98660351688045 -0.5 L 66.66127050844023 -0.5 Z"/><text text-anchor="middle" pointer-events="none" font-size="8px" fill="#000000" x="56.993301758440225" y="3" font-family="sans-serif">trek</text></g><g class="relationship" transform="translate(104.19974893827526 25.624260391713463) rotate(327.3136019911335)"><path class="outline" fill="#A5ABB6" stroke="none" d="M 25 0.5 L 44.24061459486332 0.5 L 44.24061459486332 -0.5 L 25 -0.5 Z M 63.57655209486332 0.5 L 82.81716668972663 0.5 L 82.81716668972663 3.5 L 89.81716668972663 0 L 82.81716668972663 -3.5 L 82.81716668972663 -0.5 L 63.57655209486332 -0.5 Z"/><text text-anchor="middle" pointer-events="none" font-size="8px" fill="#000000" x="53.90858334486332" y="3" font-family="sans-serif">trek</text></g></g><g class="layer nodes"><g class="node" transform="translate(104.81607942825921,-86.11630689216342)"><circle class="outline" cx="0" cy="0" r="25" fill="#F16667" stroke="#eb2728" stroke-width="2px"/><text text-anchor="middle" pointer-events="none" font-family="sans-serif" dy="1.5625" font-size="25" fill="#FFFFFF"/><text text-anchor="middle" pointer-events="none" x="0" y="5" font-size="10px" fill="#FFFFFF" font-family="sans-serif"> Darjeeling</text></g><g class="node" transform="translate(128.17122275380586,234.25045529644296)"><circle class="outline" cx="0" cy="0" r="25" fill="#D9C8AE" stroke="#c0a378" stroke-width="2px"/><text text-anchor="middle" pointer-events="none" font-family="sans-serif" dy="1.5625" font-size="25" fill="#2A2C34"/><text text-anchor="middle" pointer-events="none" x="0" y="5" font-size="10px" fill="#2A2C34" font-family="sans-serif"> Sandak…</text></g><g class="node" transform="translate(104.19974893827526,25.624260391713463)"><circle class="outline" cx="0" cy="0" r="25" fill="#F16667" stroke="#eb2728" stroke-width="2px"/><text text-anchor="middle" pointer-events="none" font-family="sans-serif" dy="1.5625" font-size="25" fill="#FFFFFF"/><text text-anchor="middle" pointer-events="none" x="0" y="5" font-size="10px" fill="#FFFFFF" font-family="sans-serif"> Rimbik</text></g><g class="node" transform="translate(181.74360075550476,125.16183250688775)"><circle class="outline" cx="0" cy="0" r="25" fill="#8DCC93" stroke="#5db665" stroke-width="2px"/><text text-anchor="middle" pointer-events="none" font-family="sans-serif" dy="1.5625" font-size="25" fill="#2A2C34"/><text text-anchor="middle" pointer-events="none" x="0" y="5" font-size="10px" fill="#2A2C34" font-family="sans-serif"> BhikeBh…</text></g><g class="node" transform="translate(200.83435556018804,-36.38166327437381)"><circle class="outline" cx="0" cy="0" r="25" fill="#8DCC93" stroke="#5db665" stroke-width="2px"/><text text-anchor="middle" pointer-events="none" font-family="sans-serif" dy="1.5625" font-size="25" fill="#2A2C34"/><text text-anchor="middle" pointer-events="none" x="0" y="5" font-size="10px" fill="#2A2C34" font-family="sans-serif"> Tumbling</text></g><g class="node" transform="translate(270.38097699191326,53.56461279653754)"><circle class="outline" cx="0" cy="0" r="25" fill="#8DCC93" stroke="#5db665" stroke-width="2px"/><text text-anchor="middle" pointer-events="none" font-family="sans-serif" dy="1.5625" font-size="25" fill="#2A2C34"/><text text-anchor="middle" pointer-events="none" x="0" y="5" font-size="10px" fill="#2A2C34" font-family="sans-serif"> Gairibus</text></g><g class="node" transform="translate(-11.784380840052123,68.44982860057306)"><circle class="outline" cx="0" cy="0" r="25" fill="#8DCC93" stroke="#5db665" stroke-width="2px"/><text text-anchor="middle" pointer-events="none" font-family="sans-serif" dy="1.5625" font-size="25" fill="#2A2C34"/><text text-anchor="middle" pointer-events="none" x="0" y="5" font-size="10px" fill="#2A2C34" font-family="sans-serif"> Sirikhola</text></g><g class="node" transform="translate(34.518090554246626,169.0500380605363)"><circle class="outline" cx="0" cy="0" r="25" fill="#8DCC93" stroke="#5db665" stroke-width="2px"/><text text-anchor="middle" pointer-events="none" font-family="sans-serif" dy="1.5625" font-size="25" fill="#2A2C34"/><text text-anchor="middle" pointer-events="none" x="0" y="5" font-size="10px" fill="#2A2C34" font-family="sans-serif"> Gurdum</text></g><g class="node" transform="translate(-69.50186224347178,171.97036663223045)"><circle class="outline" cx="0" cy="0" r="25" fill="#8DCC93" stroke="#5db665" stroke-width="2px"/><text text-anchor="middle" pointer-events="none" font-family="sans-serif" dy="1.5625" font-size="25" fill="#2A2C34"/><text text-anchor="middle" pointer-events="none" x="0" y="5" font-size="10px" fill="#2A2C34" font-family="sans-serif"> Rammam</text></g><g class="node" transform="translate(11.194971140683329,265.14244113572295)"><circle class="outline" cx="0" cy="0" r="25" fill="#D9C8AE" stroke="#c0a378" stroke-width="2px"/><text text-anchor="middle" pointer-events="none" font-family="sans-serif" dy="1.5625" font-size="25" fill="#2A2C34"/><text text-anchor="middle" pointer-events="none" x="0" y="5" font-size="10px" fill="#2A2C34" font-family="sans-serif"> Sabargr…</text></g></g></svg>