<svg xmlns="http://www.w3.org/2000/svg" width="397.7131042480469" height="442.3300476074219" viewBox="-98.51943969726562 -117.3989486694336 397.7131042480469 442.3300476074219"><title>Neo4j Graph Visualization</title><desc>Created using Neo4j (http://www.neo4j.com/)</desc><g class="layer relationships"><g class="relationship" transform="translate(77.38987550132761 295.93108481493095) rotate(279.69860541391284)"><path class="outline" fill="#A5ABB6" stroke="none" d="M 21.40063509461097,12.933012701892217 L 21.90063509461097,12.06698729810778 A 62.76911835743414 62.76911835743414 0 0 0 40.565812797957946,19.1742342641137 L 40.363175230182335,20.153488069889292 A 63.76911835743414 63.76911835743414 0 0 1 21.40063509461097,12.933012701892217 Z M 62.42713047698043,20.817758968299316 L 62.28377054917948,19.828088350820494 A 62.76911835743414 62.76911835743414 0 0 0 81.342705043372,13.856586523022159 L 80.001718671207,11.172977842594307 L 87.82795635973116,11.174886434708435 L 83.13068687292535,17.434731430259294 L 81.78970050076035,14.751122749831442 A 63.76911835743414 63.76911835743414 0 0 1 62.42713047698043,20.817758968299316"/><text text-anchor="middle" pointer-events="none" font-size="8px" fill="#000000" x="51.38123827905286" y="23.947800246104876" font-family="sans-serif">road</text></g><g class="relationship" transform="translate(95.95330599113208 187.31462513009026) rotate(326.88836556824833)"><path class="outline" fill="#A5ABB6" stroke="none" d="M 24.018736134675446,-6.953439040707552 L 24.277555179777966,-5.987513214418485 A 135.87429716000398 135.87429716000398 0 0 1 34.52955710930176,-8.31350628209529 L 34.34619017062266,-9.296550821167386 A 136.87429716000398 136.87429716000398 0 0 0 24.018736134675446,-6.953439040707552 Z M 80.75156376004925,-9.94870992980384 L 80.595894264918,-8.96090073350851 A 135.87429716000398 135.87429716000398 0 0 1 90.9092113179131,-6.9239229039186885 L 90.21449272247145,-4.005470219164733 L 97.83472068157928,-5.789321628680481 L 91.83550277850199,-10.815193150257295 L 91.14078418306033,-7.89674046550334 A 136.87429716000398 136.87429716000398 0 0 0 80.75156376004925,-9.94870992980384"/><text text-anchor="middle" pointer-events="none" font-size="8px" fill="#000000" x="57.528060571587055" y="-8.10385254337379" font-family="sans-serif">twowheeler</text></g><g class="relationship" transform="translate(198.27142160451243 120.58467485408794) rotate(318.39453777173793)"><path class="outline" fill="#A5ABB6" stroke="none" d="M 24.018736134675446,-6.953439040707552 L 24.277555179777966,-5.987513214418485 A 84.00379595571876 84.00379595571876 0 0 1 34.96256405569447,-8.119034974476321 L 34.83094174919587,-9.110334913158852 A 85.00379595571876 85.00379595571876 0 0 0 24.018736134675446,-6.953439040707552 Z M 54.235878959795,-9.451832153794015 L 54.139218082084895,-8.456514779927616 A 84.00379595571876 84.00379595571876 0 0 1 64.89261040325958,-6.702276119164599 L 64.2185953987763,-3.7789725472221636 L 71.82598790520582,-5.616791704027348 L 65.79129707590397,-10.600014215087846 L 65.11728207142069,-7.676710643145411 A 85.00379595571876 85.00379595571876 0 0 0 54.235878959795,-9.451832153794015"/><text text-anchor="middle" pointer-events="none" font-size="8px" fill="#000000" x="44.532429996773175" y="-6.336790513740937" font-family="sans-serif">trek</text></g><g class="relationship" transform="translate(270.19367667663585 56.7168462426047) rotate(194.14581644597098)"><path class="outline" fill="#A5ABB6" stroke="none" d="M 24.018736134675446,6.953439040707552 L 24.277555179777966,5.987513214418485 A 166.24879151595513 166.24879151595513 0 0 0 42.15255652867968,9.738442932769175 L 42.00125707025149,10.726930906332512 A 167.24879151595513 167.24879151595513 0 0 1 24.018736134675446,6.953439040707552 Z M 88.45113305388098,11.310225894244553 L 88.32470329488044,10.318250332025883 A 166.24879151595513 166.24879151595513 0 0 0 106.28825792813092,7.017363797552883 L 105.58481192548727,4.10100241367662 L 113.21034215761614,5.86205002203041 L 107.22618593165579,10.905845642721232 L 106.52273992901215,7.98948425884497 A 167.24879151595513 167.24879151595513 0 0 1 88.45113305388098,11.310225894244553"/><text text-anchor="middle" pointer-events="none" font-size="8px" fill="#000000" x="65.21212337304125" y="15.139157564581382" transform="rotate(180 65.21212337304125 12.139157564581382)" font-family="sans-serif">twowheeler</text></g><g class="relationship" transform="translate(270.19367667663585 56.7168462426047) rotate(194.14581644597098)"><path class="outline" fill="#A5ABB6" stroke="none" d="M 24.018736134675446,-6.953439040707552 L 24.277555179777966,-5.987513214418485 A 166.24879151595513 166.24879151595513 0 0 1 55.58908915291137,-11.238902638345394 L 55.51861153085089,-12.23641599905227 A 167.24879151595513 167.24879151595513 0 0 0 24.018736134675446,-6.953439040707552 Z M 74.90013627155646,-12.479799775649042 L 74.85472950028274,-11.480831195000718 A 166.24879151595513 166.24879151595513 0 0 1 106.28825792813092,-7.017363797552883 L 105.58481192548727,-4.10100241367662 L 113.21034215761614,-5.86205002203041 L 107.22618593165579,-10.905845642721232 L 106.52273992901215,-7.98948425884497 A 167.24879151595513 167.24879151595513 0 0 0 74.90013627155646,-12.479799775649042"/><text text-anchor="middle" pointer-events="none" font-size="8px" fill="#000000" x="65.2121233730412" y="-9.139157564581353" transform="rotate(180 65.2121233730412 -12.139157564581353)" font-family="sans-serif">trek</text></g><g class="relationship" transform="translate(198.27142160451243 120.58467485408794) rotate(278.3199240543625)"><path class="outline" fill="#A5ABB6" stroke="none" d="M 24.018736134675446,-6.953439040707552 L 24.277555179777966,-5.987513214418485 A 165.49562793035238 165.49562793035238 0 0 1 41.96271778620168,-9.704750765405265 L 41.81076055266234,-10.693137834915518 A 166.49562793035238 166.49562793035238 0 0 0 24.018736134675446,-6.953439040707552 Z M 88.25987856823906,-11.277970922075326 L 88.13285479433112,-10.286071249294764 A 165.49562793035238 165.49562793035238 0 0 1 105.90600246194649,-7.015283360841562 L 105.20275076803009,-4.098875115241553 L 112.8281636506659,-5.860430782636639 L 106.84367138716834,-10.90382768830824 L 106.14041969325194,-7.987419442708231 A 166.49562793035238 166.49562793035238 0 0 0 88.25987856823906,-11.277970922075326"/><text text-anchor="middle" pointer-events="none" font-size="8px" fill="#000000" x="65.02111798714043" y="-9.113483986410273" font-family="sans-serif">twowheeler</text></g><g class="relationship" transform="translate(218.11439897147545 -15.103653899036793) rotate(220.93519395468957)"><path class="outline" fill="#A5ABB6" stroke="none" d="M 25 0.5 L 42.76513724643109 0.5 L 42.76513724643109 -0.5 L 25 -0.5 Z M 62.10107474643109 0.5 L 79.86621199286218 0.5 L 79.86621199286218 3.5 L 86.86621199286218 0 L 79.86621199286218 -3.5 L 79.86621199286218 -0.5 L 62.10107474643109 -0.5 Z"/><text text-anchor="middle" pointer-events="none" font-size="8px" fill="#000000" x="52.43310599643109" y="3" transform="rotate(180 52.43310599643109 0)" font-family="sans-serif">trek</text></g><g class="relationship" transform="translate(133.6049402737187 -88.3989523583795) rotate(448.33300575091124)"><path class="outline" fill="#A5ABB6" stroke="none" d="M 25 0.5 L 42.610058780565204 0.5 L 42.610058780565204 -0.5 L 25 -0.5 Z M 61.945996280565204 0.5 L 79.55605506113041 0.5 L 79.55605506113041 3.5 L 86.55605506113041 0 L 79.55605506113041 -3.5 L 79.55605506113041 -0.5 L 61.945996280565204 -0.5 Z"/><text text-anchor="middle" pointer-events="none" font-size="8px" fill="#000000" x="52.278027530565204" y="3" font-family="sans-serif">trek</text></g><g class="relationship" transform="translate(218.11439897147545 -15.103653899036793) rotate(414.0529651901656)"><path class="outline" fill="#A5ABB6" stroke="none" d="M 21.40063509461097,12.933012701892217 L 21.90063509461097,12.06698729810778 A 40.416679984718954 40.416679984718954 0 0 0 31.20413714999566,15.98288195326979 L 30.93432681572036,16.945795440307045 A 41.416679984718954 41.416679984718954 0 0 1 21.40063509461097,12.933012701892217 Z M 50.31172778825656,17.661374501139164 L 50.1136734607655,16.681183456820726 A 40.416679984718954 40.416679984718954 0 0 0 59.680658034344134,13.462148257606243 L 58.37636859587338,10.760513741115595 L 66.2018534792341,10.869078653922932 L 61.4197106189718,17.064327612927105 L 60.115421180501045,14.362693096436457 A 41.416679984718954 41.416679984718954 0 0 1 50.31172778825656,17.661374501139164"/><text text-anchor="middle" pointer-events="none" font-size="8px" fill="#000000" x="40.59901120380937" y="20.95392479993911" font-family="sans-serif">trek</text></g><g class="relationship" transform="translate(218.11439897147545 -15.103653899036793) rotate(414.0529651901656)"><path class="outline" fill="#A5ABB6" stroke="none" d="M 25 0.5 L 29.851877849994757 0.5 L 29.851877849994757 -0.5 L 25 -0.5 Z M 51.86359659999476 0.5 L 56.715474449989514 0.5 L 56.715474449989514 3.5 L 63.715474449989514 0 L 56.715474449989514 -3.5 L 56.715474449989514 -0.5 L 51.86359659999476 -0.5 Z"/><text text-anchor="middle" pointer-events="none" font-size="8px" fill="#000000" x="40.85773722499476" y="3" font-family="sans-serif">road</text></g><g class="relationship" transform="translate(218.11439897147545 -15.103653899036793) rotate(414.0529651901656)"><path class="outline" fill="#A5ABB6" stroke="none" d="M 21.40063509461097,-12.933012701892217 L 21.90063509461097,-12.06698729810778 A 40.416679984718954 40.416679984718954 0 0 1 23.263228491809713,-12.819078499671 L 22.796942131765146,-13.703712339424143 A 41.416679984718954 41.416679984718954 0 0 0 21.40063509461097,-12.933012701892217 Z M 58.66607319142601,-15.028306858209952 L 58.2663043516599,-14.111690867321698 A 40.416679984718954 40.416679984718954 0 0 1 59.680658034344134,-13.462148257606243 L 58.37636859587338,-10.760513741115595 L 66.2018534792341,-10.869078653922932 L 61.4197106189718,-17.064327612927105 L 60.115421180501045,-14.362693096436457 A 41.416679984718954 41.416679984718954 0 0 0 58.66607319142601,-15.028306858209952"/><text text-anchor="middle" pointer-events="none" font-size="8px" fill="#000000" x="40.59901120380936" y="-14.95392479993911" font-family="sans-serif">twowh…</text></g><g class="relationship" transform="translate(198.27142160451243 120.58467485408794) rotate(278.3199240543625)"><path class="outline" fill="#A5ABB6" stroke="none" d="M 24.018736134675446,6.953439040707552 L 24.277555179777966,5.987513214418485 A 165.49562793035238 165.49562793035238 0 0 0 55.39831020796377,11.211647913269701 L 55.32753694641079,12.209140342037529 A 166.49562793035238 166.49562793035238 0 0 1 24.018736134675446,6.953439040707552 Z M 74.70921768155206,12.453171847111037 L 74.66358139544263,11.454213725170916 A 165.49562793035238 165.49562793035238 0 0 0 105.90600246194649,7.015283360841562 L 105.20275076803009,4.098875115241553 L 112.8281636506659,5.860430782636639 L 106.84367138716834,10.90382768830824 L 106.14041969325194,7.987419442708231 A 166.49562793035238 166.49562793035238 0 0 1 74.70921768155206,12.453171847111037"/><text text-anchor="middle" pointer-events="none" font-size="8px" fill="#000000" x="65.02111798714046" y="15.113483986410273" font-family="sans-serif">trek</text></g><g class="relationship" transform="translate(198.27142160451243 120.58467485408794) rotate(318.39453777173793)"><path class="outline" fill="#A5ABB6" stroke="none" d="M 24.018736134675446,6.953439040707552 L 24.277555179777966,5.987513214418485 A 84.00379595571876 84.00379595571876 0 0 0 24.348194453248986,6.0064080025516375 L 24.09021631387778,6.972558756630207 A 85.00379595571876 85.00379595571876 0 0 1 24.018736134675446,6.953439040707552 Z M 65.04517340701136,7.69330341485032 L 64.821350038195,6.718673690507941 A 84.00379595571876 84.00379595571876 0 0 0 64.89261040325958,6.702276119164599 L 64.2185953987763,3.7789725472221636 L 71.82598790520582,5.616791704027348 L 65.79129707590397,10.600014215087846 L 65.11728207142069,7.676710643145411 A 85.00379595571876 85.00379595571876 0 0 1 65.04517340701136,7.69330341485032"/><text text-anchor="middle" pointer-events="none" font-size="8px" fill="#000000" x="44.53242999677322" y="12.336790513740937" font-family="sans-serif">twowhe…</text></g><g class="relationship" transform="translate(95.95330599113208 187.31462513009026) rotate(517.2036154035687)"><path class="outline" fill="#A5ABB6" stroke="none" d="M 25 0.5 L 44.782421043159225 0.5 L 44.782421043159225 -0.5 L 25 -0.5 Z M 64.11835854315922 0.5 L 83.90077958631845 0.5 L 83.90077958631845 3.5 L 90.90077958631845 0 L 83.90077958631845 -3.5 L 83.90077958631845 -0.5 L 64.11835854315922 -0.5 Z"/><text text-anchor="middle" pointer-events="none" font-size="8px" fill="#000000" x="54.450389793159225" y="3" transform="rotate(180 54.450389793159225 0)" font-family="sans-serif">trek</text></g><g class="relationship" transform="translate(-10.894185801350504 232.22124164004052) rotate(239.30002257920978)"><path class="outline" fill="#A5ABB6" stroke="none" d="M 21.40063509461097,-12.933012701892217 L 21.90063509461097,-12.06698729810778 A 67.55332540561697 67.55332540561697 0 0 1 44.18135444879313,-20.132064616218656 L 44.011178616891435,-21.117478329456176 A 68.55332540561697 68.55332540561697 0 0 0 21.40063509461097,-12.933012701892217 Z M 63.41559752592938,-21.679266946070015 L 63.30271752072578,-20.685658318679316 A 67.55332540561697 67.55332540561697 0 0 1 86.0127194064298,-13.923133535859346 L 84.66554272370406,-11.242627056568521 L 92.491763971896,-11.226472356047774 L 87.80895498339744,-17.497142174913776 L 86.46177830067171,-14.816635695622953 A 68.55332540561697 68.55332540561697 0 0 0 63.41559752592938,-21.679266946070015"/><text text-anchor="middle" pointer-events="none" font-size="8px" fill="#000000" x="53.707871604502294" y="-18.58891376233788" transform="rotate(180 53.707871604502294 -21.58891376233788)" font-family="sans-serif">trek</text></g><g class="relationship" transform="translate(-69.5194419473654 133.48496863792792) rotate(334.97070491466957)"><path class="outline" fill="#A5ABB6" stroke="none" d="M 21.40063509461097,12.933012701892217 L 21.90063509461097,12.06698729810778 A 66.6785694302644 66.6785694302644 0 0 0 30.818700344627988,16.367084517489353 L 30.452447443976663,17.29759986543612 A 67.6785694302644 67.6785694302644 0 0 1 21.40063509461097,12.933012701892217 Z M 76.31611118445107,18.634815145103033 L 76.00469515494376,17.684541470540857 A 66.6785694302644 66.6785694302644 0 0 0 85.15814792933811,13.911343065125887 L 83.81206799502498,11.230285659839772 L 91.63829519739124,11.217332785942899 L 86.95292117508897,17.48608627217404 L 85.60684124077584,14.805028866887927 A 67.6785694302644 67.6785694302644 0 0 1 76.31611118445107,18.634815145103033"/><text text-anchor="middle" pointer-events="none" font-size="8px" fill="#000000" x="53.28207249103393" y="24.471685973534107" font-family="sans-serif">twowheeler</text></g><g class="relationship" transform="translate(33.757275887939926 85.26194186855443) rotate(328.91530303314914)"><path class="outline" fill="#A5ABB6" stroke="none" d="M 25 0.5 L 47.021355645005244 0.5 L 47.021355645005244 -0.5 L 25 -0.5 Z M 66.35729314500524 0.5 L 88.37864879001049 0.5 L 88.37864879001049 3.5 L 95.37864879001049 0 L 88.37864879001049 -3.5 L 88.37864879001049 -0.5 L 66.35729314500524 -0.5 Z"/><text text-anchor="middle" pointer-events="none" font-size="8px" fill="#000000" x="56.689324395005244" y="3" font-family="sans-serif">trek</text></g><g class="relationship" transform="translate(-69.5194419473654 133.48496863792792) rotate(334.97070491466957)"><path class="outline" fill="#A5ABB6" stroke="none" d="M 25 0.5 L 43.82225137072111 0.5 L 43.82225137072111 -0.5 L 25 -0.5 Z M 63.15818887072111 0.5 L 81.98044024144222 0.5 L 81.98044024144222 3.5 L 88.98044024144222 0 L 81.98044024144222 -3.5 L 81.98044024144222 -0.5 L 63.15818887072111 -0.5 Z"/><text text-anchor="middle" pointer-events="none" font-size="8px" fill="#000000" x="53.49022012072111" y="3" font-family="sans-serif">trek</text></g><g class="relationship" transform="translate(-69.5194419473654 133.48496863792792) rotate(334.97070491466957)"><path class="outline" fill="#A5ABB6" stroke="none" d="M 21.40063509461097,-12.933012701892217 L 21.90063509461097,-12.06698729810778 A 66.6785694302644 66.6785694302644 0 0 1 42.45214157775345,-19.76249846656289 L 42.26035914538792,-20.743935932036862 A 67.6785694302644 67.6785694302644 0 0 0 21.40063509461097,-12.933012701892217 Z M 64.32746381448824,-21.387331315984113 L 64.19318875398908,-20.39638721658801 A 66.6785694302644 66.6785694302644 0 0 1 85.15814792933811,-13.911343065125887 L 83.81206799502498,-11.230285659839772 L 91.63829519739124,-11.217332785942899 L 86.95292117508897,-17.48608627217404 L 85.60684124077584,-14.805028866887927 A 67.6785694302644 67.6785694302644 0 0 0 64.32746381448824,-21.387331315984113"/><text text-anchor="middle" pointer-events="none" font-size="8px" fill="#000000" x="53.28207249103392" y="-18.471685973534107" font-family="sans-serif">road</text></g><g class="relationship" transform="translate(-10.894185801350504 232.22124164004052) rotate(239.30002257920978)"><path class="outline" fill="#A5ABB6" stroke="none" d="M 25 0.5 L 42.90879960799311 0.5 L 42.90879960799311 -0.5 L 25 -0.5 Z M 64.9205183579931 0.5 L 82.82931796598622 0.5 L 82.82931796598622 3.5 L 89.82931796598622 0 L 82.82931796598622 -3.5 L 82.82931796598622 -0.5 L 64.9205183579931 -0.5 Z"/><text text-anchor="middle" pointer-events="none" font-size="8px" fill="#000000" x="53.91465898299311" y="3" transform="rotate(180 53.91465898299311 0)" font-family="sans-serif">road</text></g><g class="relationship" transform="translate(-10.894185801350504 232.22124164004052) rotate(239.30002257920978)"><path class="outline" fill="#A5ABB6" stroke="none" d="M 21.40063509461097,12.933012701892217 L 21.90063509461097,12.06698729810778 A 67.55332540561697 67.55332540561697 0 0 0 31.22825026557236,16.53786249933092 L 30.866328074695073,17.470070806390332 A 68.55332540561697 68.55332540561697 0 0 1 21.40063509461097,12.933012701892217 Z M 76.7494502087302,18.798459758949846 L 76.44206683547104,17.8468739972637 A 67.55332540561697 67.55332540561697 0 0 0 86.0127194064298,13.923133535859346 L 84.66554272370406,11.242627056568521 L 92.491763971896,11.226472356047774 L 87.80895498339744,17.497142174913776 L 86.46177830067171,14.816635695622953 A 68.55332540561697 68.55332540561697 0 0 1 76.7494502087302,18.798459758949846"/><text text-anchor="middle" pointer-events="none" font-size="8px" fill="#000000" x="53.707871604502294" y="24.58891376233788" transform="rotate(180 53.707871604502294 21.58891376233788)" font-family="sans-serif">twowheeler</text></g><g class="relationship" transform="translate(95.95330599113208 187.31462513009026) rotate(238.63977218547012)"><path class="outline" fill="#A5ABB6" stroke="none" d="M 25 0.5 L 46.587985600751814 0.5 L 46.587985600751814 -0.5 L 25 -0.5 Z M 65.92392310075181 0.5 L 87.51190870150363 0.5 L 87.51190870150363 3.5 L 94.51190870150363 0 L 87.51190870150363 -3.5 L 87.51190870150363 -0.5 L 65.92392310075181 -0.5 Z"/><text text-anchor="middle" pointer-events="none" font-size="8px" fill="#000000" x="56.255954350751814" y="3" transform="rotate(180 56.255954350751814 0)" font-family="sans-serif">trek</text></g><g class="relationship" transform="translate(95.95330599113208 187.31462513009026) rotate(326.88836556824833)"><path class="outline" fill="#A5ABB6" stroke="none" d="M 24.018736134675446,6.953439040707552 L 24.277555179777966,5.987513214418485 A 135.87429716000398 135.87429716000398 0 0 0 47.91637705327131,10.127395707386711 L 47.83153367809006,11.123790007695504 A 136.87429716000398 136.87429716000398 0 0 1 24.018736134675446,6.953439040707552 Z M 67.22019778988594,11.396269096360385 L 67.16338809714946,10.397884071026397 A 135.87429716000398 135.87429716000398 0 0 0 90.9092113179131,6.9239229039186885 L 90.21449272247145,4.005470219164733 L 97.83472068157928,5.789321628680481 L 91.83550277850199,10.815193150257295 L 91.14078418306033,7.89674046550334 A 136.87429716000398 136.87429716000398 0 0 1 67.22019778988594,11.396269096360385"/><text text-anchor="middle" pointer-events="none" font-size="8px" fill="#000000" x="57.528060571587076" y="14.10385254337379" font-family="sans-serif">trek</text></g><g class="relationship" transform="translate(77.38987550132761 295.93108481493095) rotate(215.81595094967565)"><path class="outline" fill="#A5ABB6" stroke="none" d="M 24.018736134675446,-6.953439040707552 L 24.277555179777966,-5.987513214418485 A 109.44247747577838 109.44247747577838 0 0 1 39.961231861815264,-8.984053108274622 L 39.84571802181931,-9.977358978975786 A 110.44247747577838 110.44247747577838 0 0 0 24.018736134675446,-6.953439040707552 Z M 61.91792093210066,-10.323185226346297 L 61.833582293098004,-9.32674807631065 A 109.44247747577838 109.44247747577838 0 0 1 77.60343690743962,-6.82302064612167 L 76.91814309491807,-3.9023405214726723 L 84.53257283370753,-5.710781771012893 L 78.51716199080167,-10.717260812320333 L 77.83186817828012,-7.7965806876713355 A 110.44247747577838 110.44247747577838 0 0 0 61.91792093210066,-10.323185226346297"/><text text-anchor="middle" pointer-events="none" font-size="8px" fill="#000000" x="50.880990470141576" y="-7.203183085702236" transform="rotate(180 50.880990470141576 -10.203183085702236)" font-family="sans-serif">road</text></g><g class="relationship" transform="translate(77.38987550132761 295.93108481493095) rotate(279.69860541391284)"><path class="outline" fill="#A5ABB6" stroke="none" d="M 25 0.5 L 25.624977889981622 0.5 L 25.624977889981622 -0.5 L 25 -0.5 Z M 77.56638413998162 0.5 L 78.19136202996324 0.5 L 78.19136202996324 3.5 L 85.19136202996324 0 L 78.19136202996324 -3.5 L 78.19136202996324 -0.5 L 77.56638413998162 -0.5 Z"/><text text-anchor="middle" pointer-events="none" font-size="8px" fill="#000000" x="51.59568101498162" y="3" font-family="sans-serif">PublicTran…</text></g><g class="relationship" transform="translate(77.38987550132761 295.93108481493095) rotate(279.69860541391284)"><path class="outline" fill="#A5ABB6" stroke="none" d="M 21.40063509461097,-12.933012701892217 L 21.90063509461097,-12.06698729810778 A 62.76911835743414 62.76911835743414 0 0 1 41.868340413117046,-19.429436542492496 L 41.68645393519651,-20.41275607812151 A 63.76911835743414 63.76911835743414 0 0 0 21.40063509461097,-12.933012701892217 Z M 61.090651236092114,-20.99695068102988 L 60.96824940329566,-20.0044700558648 A 62.76911835743414 62.76911835743414 0 0 1 81.342705043372,-13.856586523022159 L 80.001718671207,-11.172977842594307 L 87.82795635973116,-11.174886434708435 L 83.13068687292535,-17.434731430259294 L 81.78970050076035,-14.751122749831442 A 63.76911835743414 63.76911835743414 0 0 0 61.090651236092114,-20.99695068102988"/><text text-anchor="middle" pointer-events="none" font-size="8px" fill="#000000" x="51.38123827905285" y="-17.947800246104876" font-family="sans-serif">trek</text></g><g class="relationship" transform="translate(77.38987550132761 295.93108481493095) rotate(215.81595094967565)"><path class="outline" fill="#A5ABB6" stroke="none" d="M 24.018736134675446,6.953439040707552 L 24.277555179777966,5.987513214418485 A 109.44247747577838 109.44247747577838 0 0 0 41.28502609265663,9.129842316970226 L 41.18160805185468,10.124480295752804 A 110.44247747577838 110.44247747577838 0 0 1 24.018736134675446,6.953439040707552 Z M 60.57807757396618,10.428383276997295 L 60.50587052951626,9.430993612557259 A 109.44247747577838 109.44247747577838 0 0 0 77.60343690743962,6.82302064612167 L 76.91814309491807,3.9023405214726723 L 84.53257283370753,5.710781771012893 L 78.51716199080167,10.717260812320333 L 77.83186817828012,7.7965806876713355 A 110.44247747577838 110.44247747577838 0 0 1 60.57807757396618,10.428383276997295"/><text text-anchor="middle" pointer-events="none" font-size="8px" fill="#000000" x="50.880990470141626" y="13.203183085702236" transform="rotate(180 50.880990470141626 10.203183085702236)" font-family="sans-serif">trek</text></g></g><g class="layer nodes"><g class="node" transform="translate(77.38987550132761,295.93108481493095)"><circle class="outline" cx="0" cy="0" r="25" fill="#F16667" stroke="#eb2728" stroke-width="2px"/><text text-anchor="middle" pointer-events="none" font-family="sans-serif" dy="1.5625" font-size="25" fill="#FFFFFF"/><text text-anchor="middle" pointer-events="none" x="0" y="5" font-size="10px" fill="#FFFFFF" font-family="sans-serif"> Darjeeling</text></g><g class="node" transform="translate(95.95330599113208,187.31462513009026)"><circle class="outline" cx="0" cy="0" r="25" fill="#F16667" stroke="#eb2728" stroke-width="2px"/><text text-anchor="middle" pointer-events="none" font-family="sans-serif" dy="1.5625" font-size="25" fill="#FFFFFF"/><text text-anchor="middle" pointer-events="none" x="0" y="5" font-size="10px" fill="#FFFFFF" font-family="sans-serif"> Rimbik</text></g><g class="node" transform="translate(198.27142160451243,120.58467485408794)"><circle class="outline" cx="0" cy="0" r="25" fill="#8DCC93" stroke="#5db665" stroke-width="2px"/><text text-anchor="middle" pointer-events="none" font-family="sans-serif" dy="1.5625" font-size="25" fill="#2A2C34"/><text text-anchor="middle" pointer-events="none" x="0" y="5" font-size="10px" fill="#2A2C34" font-family="sans-serif"> Sirikhola</text></g><g class="node" transform="translate(270.19367667663585,56.7168462426047)"><circle class="outline" cx="0" cy="0" r="25" fill="#8DCC93" stroke="#5db665" stroke-width="2px"/><text text-anchor="middle" pointer-events="none" font-family="sans-serif" dy="1.5625" font-size="25" fill="#2A2C34"/><text text-anchor="middle" pointer-events="none" x="0" y="5" font-size="10px" fill="#2A2C34" font-family="sans-serif"> Gurdum</text></g><g class="node" transform="translate(136.85015429906295,23.109890370489623)"><circle class="outline" cx="0" cy="0" r="25" fill="#D9C8AE" stroke="#c0a378" stroke-width="2px"/><text text-anchor="middle" pointer-events="none" font-family="sans-serif" dy="1.5625" font-size="25" fill="#2A2C34"/><text text-anchor="middle" pointer-events="none" x="0" y="5" font-size="10px" fill="#2A2C34" font-family="sans-serif"> Sandak…</text></g><g class="node" transform="translate(218.11439897147545,-15.103653899036793)"><circle class="outline" cx="0" cy="0" r="25" fill="#8DCC93" stroke="#5db665" stroke-width="2px"/><text text-anchor="middle" pointer-events="none" font-family="sans-serif" dy="1.5625" font-size="25" fill="#2A2C34"/><text text-anchor="middle" pointer-events="none" x="0" y="5" font-size="10px" fill="#2A2C34" font-family="sans-serif"> Rammam</text></g><g class="node" transform="translate(133.6049402737187,-88.3989523583795)"><circle class="outline" cx="0" cy="0" r="25" fill="#D9C8AE" stroke="#c0a378" stroke-width="2px"/><text text-anchor="middle" pointer-events="none" font-family="sans-serif" dy="1.5625" font-size="25" fill="#2A2C34"/><text text-anchor="middle" pointer-events="none" x="0" y="5" font-size="10px" fill="#2A2C34" font-family="sans-serif"> Sabargr…</text></g><g class="node" transform="translate(-10.894185801350504,232.22124164004052)"><circle class="outline" cx="0" cy="0" r="25" fill="#8DCC93" stroke="#5db665" stroke-width="2px"/><text text-anchor="middle" pointer-events="none" font-family="sans-serif" dy="1.5625" font-size="25" fill="#2A2C34"/><text text-anchor="middle" pointer-events="none" x="0" y="5" font-size="10px" fill="#2A2C34" font-family="sans-serif"> Tumbling</text></g><g class="node" transform="translate(-69.5194419473654,133.48496863792792)"><circle class="outline" cx="0" cy="0" r="25" fill="#8DCC93" stroke="#5db665" stroke-width="2px"/><text text-anchor="middle" pointer-events="none" font-family="sans-serif" dy="1.5625" font-size="25" fill="#2A2C34"/><text text-anchor="middle" pointer-events="none" x="0" y="5" font-size="10px" fill="#2A2C34" font-family="sans-serif"> Gairibus</text></g><g class="node" transform="translate(33.757275887939926,85.26194186855443)"><circle class="outline" cx="0" cy="0" r="25" fill="#8DCC93" stroke="#5db665" stroke-width="2px"/><text text-anchor="middle" pointer-events="none" font-family="sans-serif" dy="1.5625" font-size="25" fill="#2A2C34"/><text text-anchor="middle" pointer-events="none" x="0" y="5" font-size="10px" fill="#2A2C34" font-family="sans-serif"> BhikeBh…</text></g></g></svg>