<svg xmlns="http://www.w3.org/2000/svg" width="388.94354248046875" height="263.0765075683594" viewBox="3.1007232666015625 -45.840599060058594 388.94354248046875 263.0765075683594"><title>Neo4j Graph Visualization</title><desc>Created using Neo4j (http://www.neo4j.com/)</desc><g class="layer relationships"><g class="relationship" transform="translate(303.27293173546514 152.99488675138988) rotate(302.2427488359018)"><path class="outline" fill="#A5ABB6" stroke="none" d="M 24.018736134675446,6.953439040707552 L 24.277555179777966,5.987513214418485 A 115.75304084298506 115.75304084298506 0 0 0 29.323449955637564,7.2189158981636865 L 29.108222808761756,8.19547991308933 A 116.75304084298506 116.75304084298506 0 0 1 24.018736134675446,6.953439040707552 Z M 75.87650390457713,8.908732303539793 L 75.69115663593334,7.926059219545792 A 115.75304084298506 115.75304084298506 0 0 0 80.77225569740901,6.849101009561757 L 80.0845257986775,3.9289935481160723 L 87.70046142390419,5.731082489429196 L 81.68922889571769,10.742577624822669 L 81.00149899698619,7.822470163376984 A 116.75304084298506 116.75304084298506 0 0 1 75.87650390457713,8.908732303539793"/><text text-anchor="middle" pointer-events="none" font-size="8px" fill="#000000" x="52.463904207278865" y="13.418185375999684" font-family="sans-serif">DIRECTED</text></g><g class="relationship" transform="translate(303.27293173546514 152.99488675138988) rotate(302.2427488359018)"><path class="outline" fill="#A5ABB6" stroke="none" d="M 24.018736134675446,-6.953439040707552 L 24.277555179777966,-5.987513214418485 A 115.75304084298506 115.75304084298506 0 0 1 34.7548396075193,-8.280483040233008 L 34.58653468067613,-9.266218020641176 A 116.75304084298506 116.75304084298506 0 0 0 24.018736134675446,-6.953439040707552 Z M 70.36808822674158,-9.811914334527017 L 70.22992101985946,-8.821505417492034 A 115.75304084298506 115.75304084298506 0 0 1 80.77225569740901,-6.849101009561757 L 80.0845257986775,-3.9289935481160723 L 87.70046142390419,-5.731082489429196 L 81.68922889571769,-10.742577624822669 L 81.00149899698619,-7.822470163376984 A 116.75304084298506 116.75304084298506 0 0 0 70.36808822674158,-9.811914334527017"/><text text-anchor="middle" pointer-events="none" font-size="8px" fill="#000000" x="52.463904207278816" y="-7.418185375999684" font-family="sans-serif">WROTE</text></g><g class="relationship" transform="translate(274.17413909540767 -16.84060012567397) rotate(400.1909637096501)"><path class="outline" fill="#A5ABB6" stroke="none" d="M 24.018736134675446,6.953439040707552 L 24.277555179777966,5.987513214418485 A 124.3203523024977 124.3203523024977 0 0 0 31.444886927185987,7.682142461184341 L 31.24372000110231,8.661699436479822 A 125.3203523024977 125.3203523024977 0 0 1 24.018736134675446,6.953439040707552 Z M 78.0407679037584,9.350442851529536 L 77.86851545267899,8.365390013811108 A 124.3203523024977 124.3203523024977 0 0 0 85.08261402335606,6.882421884028153 L 84.39177177322688,3.9630491799294703 L 92.0096240412745,5.757018751076511 L 86.00373702352829,10.774918822826395 L 85.31289477339911,7.8555461187277125 A 125.3203523024977 125.3203523024977 0 0 1 78.0407679037584,9.350442851529536"/><text text-anchor="middle" pointer-events="none" font-size="8px" fill="#000000" x="54.61716447371175" y="13.710110037622272" font-family="sans-serif">DIRECTED</text></g><g class="relationship" transform="translate(274.17413909540767 -16.84060012567397) rotate(400.1909637096501)"><path class="outline" fill="#A5ABB6" stroke="none" d="M 24.018736134675446,-6.953439040707552 L 24.277555179777966,-5.987513214418485 A 124.3203523024977 124.3203523024977 0 0 1 36.891037244088736,-8.67476644134726 L 36.733677709281196,-9.662307821141113 A 125.3203523024977 125.3203523024977 0 0 0 24.018736134675446,-6.953439040707552 Z M 72.52374117171249,-10.189054093368313 L 72.3955121105349,-9.197309515430263 A 124.3203523024977 124.3203523024977 0 0 1 85.08261402335606,-6.882421884028153 L 84.39177177322688,-3.9630491799294703 L 92.0096240412745,-5.757018751076511 L 86.00373702352829,-10.774918822826395 L 85.31289477339911,-7.8555461187277125 A 125.3203523024977 125.3203523024977 0 0 0 72.52374117171249,-10.189054093368313"/><text text-anchor="middle" pointer-events="none" font-size="8px" fill="#000000" x="54.617164473711746" y="-7.710110037622272" font-family="sans-serif">WROTE</text></g><g class="relationship" transform="translate(47.82223244366035 188.23591529758772) rotate(345.613512992428)"><path class="outline" fill="#A5ABB6" stroke="none" d="M 21.40063509461097,12.933012701892217 L 21.90063509461097,12.06698729810778 A 81.00228672800127 81.00228672800127 0 0 0 35.099797447737984,18.179471399109133 L 34.762745469161736,19.12095743922754 A 82.00228672800127 82.00228672800127 0 0 1 21.40063509461097,12.933012701892217 Z M 85.97236462542958,20.458673783940284 L 85.68492646843038,19.500874584785848 A 81.00228672800127 81.00228672800127 0 0 0 99.18521478265477,14.085843269824144 L 97.82290374886041,11.412996725930878 L 105.64890855737144,11.352591948286214 L 101.00162949438057,17.649638661681834 L 99.63931846058621,14.976792117788568 A 82.00228672800127 82.00228672800127 0 0 1 85.97236462542958,20.458673783940284"/><text text-anchor="middle" pointer-events="none" font-size="8px" fill="#000000" x="60.273472036484065" y="26.391442497417827" font-family="sans-serif">PRODUCED</text></g><g class="relationship" transform="translate(47.82223244366035 188.23591529758772) rotate(345.613512992428)"><path class="outline" fill="#A5ABB6" stroke="none" d="M 25 0.5 L 37.016002378241 0.5 L 37.016002378241 -0.5 L 25 -0.5 Z M 83.906627378241 0.5 L 95.922629756482 0.5 L 95.922629756482 3.5 L 102.922629756482 0 L 95.922629756482 -3.5 L 95.922629756482 -0.5 L 83.906627378241 -0.5 Z"/><text text-anchor="middle" pointer-events="none" font-size="8px" fill="#000000" x="60.461314878241" y="3" font-family="sans-serif">DIRECTED</text></g><g class="relationship" transform="translate(47.82223244366035 188.23591529758772) rotate(345.613512992428)"><path class="outline" fill="#A5ABB6" stroke="none" d="M 21.40063509461097,-12.933012701892217 L 21.90063509461097,-12.06698729810778 A 81.00228672800127 81.00228672800127 0 0 1 42.7086485842903,-20.4888977259572 L 42.46553038763433,-21.45889439731991 A 82.00228672800127 82.00228672800127 0 0 0 21.40063509461097,-12.933012701892217 Z M 78.15802336801244,-22.391266713889905 L 77.96587939815383,-21.409899965499193 A 81.00228672800127 81.00228672800127 0 0 1 99.18521478265477,-14.085843269824144 L 97.82290374886041,-11.412996725930878 L 105.64890855737144,-11.352591948286214 L 101.00162949438057,-17.649638661681834 L 99.63931846058621,-14.976792117788568 A 82.00228672800127 82.00228672800127 0 0 0 78.15802336801244,-22.391266713889905"/><text text-anchor="middle" pointer-events="none" font-size="8px" fill="#000000" x="60.273472036484065" y="-20.391442497417827" font-family="sans-serif">WROTE</text></g><g class="relationship" transform="translate(32.100725064758265 42.03814279601272) rotate(371.7448310699918)"><path class="outline" fill="#A5ABB6" stroke="none" d="M 21.40063509461097,12.933012701892217 L 21.90063509461097,12.06698729810778 A 94.01801902520292 94.01801902520292 0 0 0 49.02642569494497,22.536482083714972 L 48.81494262905589,23.513863745524816 A 95.01801902520292 95.01801902520292 0 0 1 21.40063509461097,12.933012701892217 Z M 84.55318712498118,24.366408807897415 L 84.38854948384473,23.380054689377587 A 94.01801902520292 94.01801902520292 0 0 0 111.9827054302058,14.215918376176518 L 110.60829673909797,11.549272402334609 L 118.43394748435489,11.453405759231902 L 113.81525035168289,17.771446341299065 L 112.44084166057506,15.104800367457155 A 95.01801902520292 95.01801902520292 0 0 1 84.55318712498118,24.366408807897415"/><text text-anchor="middle" pointer-events="none" font-size="8px" fill="#000000" x="66.65553411215865" y="28.136131063639" font-family="sans-serif">WROTE</text></g><g class="relationship" transform="translate(32.100725064758265 42.03814279601272) rotate(371.7448310699918)"><path class="outline" fill="#A5ABB6" stroke="none" d="M 25 0.5 L 43.38268613318539 0.5 L 43.38268613318539 -0.5 L 25 -0.5 Z M 90.27331113318539 0.5 L 108.65599726637078 0.5 L 108.65599726637078 3.5 L 115.65599726637078 0 L 108.65599726637078 -3.5 L 108.65599726637078 -0.5 L 90.27331113318539 -0.5 Z"/><text text-anchor="middle" pointer-events="none" font-size="8px" fill="#000000" x="66.82799863318539" y="3" font-family="sans-serif">DIRECTED</text></g><g class="relationship" transform="translate(32.100725064758265 42.03814279601272) rotate(371.7448310699918)"><path class="outline" fill="#A5ABB6" stroke="none" d="M 21.40063509461097,-12.933012701892217 L 21.90063509461097,-12.06698729810778 A 94.01801902520292 94.01801902520292 0 0 1 41.32548207688137,-20.525481050353676 L 41.032089780209645,-21.48147318434522 A 95.01801902520292 95.01801902520292 0 0 0 21.40063509461097,-12.933012701892217 Z M 92.42409823836957,-22.707442833229635 L 92.17662461313097,-21.738548202833087 A 94.01801902520292 94.01801902520292 0 0 1 111.9827054302058,-14.215918376176518 L 110.60829673909797,-11.549272402334609 L 118.43394748435489,-11.453405759231902 L 113.81525035168289,-17.771446341299065 L 112.44084166057506,-15.104800367457155 A 95.01801902520292 95.01801902520292 0 0 0 92.42409823836957,-22.707442833229635"/><text text-anchor="middle" pointer-events="none" font-size="8px" fill="#000000" x="66.65553411215863" y="-22.136131063639" font-family="sans-serif">PRODUCED</text></g></g><g class="layer nodes"><g class="node" transform="translate(303.27293173546514,152.99488675138988)"><circle class="outline" cx="0" cy="0" r="25" fill="#F79767" stroke="#f36924" stroke-width="2px"/><text text-anchor="middle" pointer-events="none" font-family="sans-serif" dy="1.5625" font-size="25" fill="#FFFFFF"/><text text-anchor="middle" pointer-events="none" font-family="sans-serif" dy="1.5625" font-size="25" fill="#FFFFFF"/><text text-anchor="middle" pointer-events="none" x="0" y="0" font-size="10px" fill="#FFFFFF" font-family="sans-serif"> Lilly</text><text text-anchor="middle" pointer-events="none" x="0" y="10" font-size="10px" fill="#FFFFFF" font-family="sans-serif"> Wacho…</text></g><g class="node" transform="translate(363.0442769161855,58.236466972344516)"><circle class="outline" cx="0" cy="0" r="25" fill="#57C7E3" stroke="#23b3d7" stroke-width="2px"/><text text-anchor="middle" pointer-events="none" font-family="sans-serif" dy="1.5625" font-size="25" fill="#2A2C34"/><text text-anchor="middle" pointer-events="none" font-family="sans-serif" dy="1.5625" font-size="25" fill="#2A2C34"/><text text-anchor="middle" pointer-events="none" x="0" y="0" font-size="10px" fill="#2A2C34" font-family="sans-serif"> Speed</text><text text-anchor="middle" pointer-events="none" x="0" y="10" font-size="10px" fill="#2A2C34" font-family="sans-serif"> Racer</text></g><g class="node" transform="translate(274.17413909540767,-16.84060012567397)"><circle class="outline" cx="0" cy="0" r="25" fill="#F79767" stroke="#f36924" stroke-width="2px"/><text text-anchor="middle" pointer-events="none" font-family="sans-serif" dy="1.5625" font-size="25" fill="#FFFFFF"/><text text-anchor="middle" pointer-events="none" font-family="sans-serif" dy="1.5625" font-size="25" fill="#FFFFFF"/><text text-anchor="middle" pointer-events="none" x="0" y="0" font-size="10px" fill="#FFFFFF" font-family="sans-serif"> Lana</text><text text-anchor="middle" pointer-events="none" x="0" y="10" font-size="10px" fill="#FFFFFF" font-family="sans-serif"> Wacho…</text></g><g class="node" transform="translate(47.82223244366035,188.23591529758772)"><circle class="outline" cx="0" cy="0" r="25" fill="#F79767" stroke="#f36924" stroke-width="2px"/><text text-anchor="middle" pointer-events="none" font-family="sans-serif" dy="1.5625" font-size="25" fill="#FFFFFF"/><text text-anchor="middle" pointer-events="none" font-family="sans-serif" dy="1.5625" font-size="25" fill="#FFFFFF"/><text text-anchor="middle" pointer-events="none" x="0" y="0" font-size="10px" fill="#FFFFFF" font-family="sans-serif"> Cameron</text><text text-anchor="middle" pointer-events="none" x="0" y="10" font-size="10px" fill="#FFFFFF" font-family="sans-serif"> Crowe</text></g><g class="node" transform="translate(171.73343709768398,156.45207404133544)"><circle class="outline" cx="0" cy="0" r="25" fill="#57C7E3" stroke="#23b3d7" stroke-width="2px"/><text text-anchor="middle" pointer-events="none" font-family="sans-serif" dy="1.5625" font-size="25" fill="#2A2C34"/><text text-anchor="middle" pointer-events="none" font-family="sans-serif" dy="1.5625" font-size="25" fill="#2A2C34"/><text text-anchor="middle" pointer-events="none" x="0" y="0" font-size="10px" fill="#2A2C34" font-family="sans-serif"> Jerry</text><text text-anchor="middle" pointer-events="none" x="0" y="10" font-size="10px" fill="#2A2C34" font-family="sans-serif"> Maguire</text></g><g class="node" transform="translate(32.100725064758265,42.03814279601272)"><circle class="outline" cx="0" cy="0" r="25" fill="#F79767" stroke="#f36924" stroke-width="2px"/><text text-anchor="middle" pointer-events="none" font-family="sans-serif" dy="1.5625" font-size="25" fill="#FFFFFF"/><text text-anchor="middle" pointer-events="none" font-family="sans-serif" dy="1.5625" font-size="25" fill="#FFFFFF"/><text text-anchor="middle" pointer-events="none" x="0" y="0" font-size="10px" fill="#FFFFFF" font-family="sans-serif"> Nancy</text><text text-anchor="middle" pointer-events="none" x="0" y="10" font-size="10px" fill="#FFFFFF" font-family="sans-serif"> Meyers</text></g><g class="node" transform="translate(169.8119258688051,70.66915290925871)"><circle class="outline" cx="0" cy="0" r="25" fill="#57C7E3" stroke="#23b3d7" stroke-width="2px"/><text text-anchor="middle" pointer-events="none" font-family="sans-serif" dy="1.5625" font-size="25" fill="#2A2C34"/><text text-anchor="middle" pointer-events="none" x="0" y="5" font-size="10px" fill="#2A2C34" font-family="sans-serif"> Somethi…</text></g></g></svg>