<svg xmlns="http://www.w3.org/2000/svg" width="646.1254272460938" height="471.13128662109375" viewBox="-258.53839111328125 -167.41070556640625 646.1254272460938 471.13128662109375"><title>Neo4j Graph Visualization</title><desc>Created using Neo4j (http://www.neo4j.com/)</desc><g class="layer relationships"><g class="relationship selected" transform="translate(126.58396979521292 11.50905892617979) rotate(442.2610248790389)"><path class="outline" fill="#A5ABB6" stroke="none" d="M 25 0.5 L 43.089469846930896 0.5 L 43.089469846930896 -0.5 L 25 -0.5 Z M 88.6519698469309 0.5 L 106.74143969386179 0.5 L 106.74143969386179 3.5 L 113.74143969386179 0 L 106.74143969386179 -3.5 L 106.74143969386179 -0.5 L 88.6519698469309 -0.5 Z"/><text text-anchor="middle" pointer-events="none" font-size="8px" fill="#000000" x="65.8707198469309" y="3" font-family="sans-serif">ACTED_IN</text></g><g class="relationship" transform="translate(126.58396979521292 11.50905892617979) rotate(355.92276978842347)"><path class="outline" fill="#A5ABB6" stroke="none" d="M 25 0.5 L 31.760998669966284 0.5 L 31.760998669966284 -0.5 L 25 -0.5 Z M 77.32349866996628 0.5 L 84.08449733993257 0.5 L 84.08449733993257 3.5 L 91.08449733993257 0 L 84.08449733993257 -3.5 L 84.08449733993257 -0.5 L 77.32349866996628 -0.5 Z"/><text text-anchor="middle" pointer-events="none" font-size="8px" fill="#000000" x="54.542248669966284" y="3" font-family="sans-serif">ACTED_IN</text></g><g class="relationship" transform="translate(126.58396979521292 11.50905892617979) rotate(196.92172523286843)"><path class="outline" fill="#A5ABB6" stroke="none" d="M 25 0.5 L 72.1535493220896 0.5 L 72.1535493220896 -0.5 L 25 -0.5 Z M 117.7160493220896 0.5 L 164.8695986441792 0.5 L 164.8695986441792 3.5 L 171.8695986441792 0 L 164.8695986441792 -3.5 L 164.8695986441792 -0.5 L 117.7160493220896 -0.5 Z"/><text text-anchor="middle" pointer-events="none" font-size="8px" fill="#000000" x="94.9347993220896" y="3" transform="rotate(180 94.9347993220896 0)" font-family="sans-serif">ACTED_IN</text></g><g class="relationship" transform="translate(126.58396979521292 11.50905892617979) rotate(219.2392571201064)"><path class="outline" fill="#A5ABB6" stroke="none" d="M 25 0.5 L 35.91189463206963 0.5 L 35.91189463206963 -0.5 L 25 -0.5 Z M 81.47439463206963 0.5 L 92.38628926413926 0.5 L 92.38628926413926 3.5 L 99.38628926413926 0 L 92.38628926413926 -3.5 L 92.38628926413926 -0.5 L 81.47439463206963 -0.5 Z"/><text text-anchor="middle" pointer-events="none" font-size="8px" fill="#000000" x="58.69314463206963" y="3" transform="rotate(180 58.69314463206963 0)" font-family="sans-serif">ACTED_IN</text></g><g class="relationship" transform="translate(126.58396979521292 11.50905892617979) rotate(189.0037380167022)"><path class="outline" fill="#A5ABB6" stroke="none" d="M 25 0.5 L 102.42479136304374 0.5 L 102.42479136304374 -0.5 L 25 -0.5 Z M 147.98729136304374 0.5 L 225.41208272608748 0.5 L 225.41208272608748 3.5 L 232.41208272608748 0 L 225.41208272608748 -3.5 L 225.41208272608748 -0.5 L 147.98729136304374 -0.5 Z"/><text text-anchor="middle" pointer-events="none" font-size="8px" fill="#000000" x="125.20604136304374" y="3" transform="rotate(180 125.20604136304374 0)" font-family="sans-serif">ACTED_IN</text></g><g class="relationship" transform="translate(63.382131512812826 248.60783996220758) rotate(309.41894054975785)"><path class="outline" fill="#A5ABB6" stroke="none" d="M 25 0.5 L 38.19639753458944 0.5 L 38.19639753458944 -0.5 L 25 -0.5 Z M 83.75889753458944 0.5 L 96.95529506917887 0.5 L 96.95529506917887 3.5 L 103.95529506917887 0 L 96.95529506917887 -3.5 L 96.95529506917887 -0.5 L 83.75889753458944 -0.5 Z"/><text text-anchor="middle" pointer-events="none" font-size="8px" fill="#000000" x="60.97764753458944" y="3" font-family="sans-serif">ACTED_IN</text></g><g class="relationship" transform="translate(144.18032787893353 274.7206135451349) rotate(270.4951421189002)"><path class="outline" fill="#A5ABB6" stroke="none" d="M 25 0.5 L 36.58799554982725 0.5 L 36.58799554982725 -0.5 L 25 -0.5 Z M 82.15049554982724 0.5 L 93.7384910996545 0.5 L 93.7384910996545 3.5 L 100.7384910996545 0 L 93.7384910996545 -3.5 L 93.7384910996545 -0.5 L 82.15049554982724 -0.5 Z"/><text text-anchor="middle" pointer-events="none" font-size="8px" fill="#000000" x="59.36924554982725" y="3" font-family="sans-serif">ACTED_IN</text></g><g class="relationship" transform="translate(223.33561479461025 243.03392090223494) rotate(230.30386760913638)"><path class="outline" fill="#A5ABB6" stroke="none" d="M 25 0.5 L 34.832531933668825 0.5 L 34.832531933668825 -0.5 L 25 -0.5 Z M 80.39503193366883 0.5 L 90.22756386733765 0.5 L 90.22756386733765 3.5 L 97.22756386733765 0 L 90.22756386733765 -3.5 L 90.22756386733765 -0.5 L 80.39503193366883 -0.5 Z"/><text text-anchor="middle" pointer-events="none" font-size="8px" fill="#000000" x="57.613781933668825" y="3" transform="rotate(180 57.613781933668825 0)" font-family="sans-serif">ACTED_IN</text></g><g class="relationship" transform="translate(302.54708119670437 107.529684363355) rotate(240.012536370511)"><path class="outline" fill="#A5ABB6" stroke="none" d="M 25 0.5 L 33.91397413534962 0.5 L 33.91397413534962 -0.5 L 25 -0.5 Z M 79.47647413534962 0.5 L 88.39044827069924 0.5 L 88.39044827069924 3.5 L 95.39044827069924 0 L 88.39044827069924 -3.5 L 88.39044827069924 -0.5 L 79.47647413534962 -0.5 Z"/><text text-anchor="middle" pointer-events="none" font-size="8px" fill="#000000" x="56.69522413534962" y="3" transform="rotate(180 56.69522413534962 0)" font-family="sans-serif">ACTED_IN</text></g><g class="relationship" transform="translate(332.17958264317116 -69.55155382200923) rotate(500.96753207100153)"><path class="outline" fill="#A5ABB6" stroke="none" d="M 25 0.5 L 31.523949648074264 0.5 L 31.523949648074264 -0.5 L 25 -0.5 Z M 77.08644964807426 0.5 L 83.61039929614853 0.5 L 83.61039929614853 3.5 L 90.61039929614853 0 L 83.61039929614853 -3.5 L 83.61039929614853 -0.5 L 77.08644964807426 -0.5 Z"/><text text-anchor="middle" pointer-events="none" font-size="8px" fill="#000000" x="54.305199648074264" y="3" transform="rotate(180 54.305199648074264 0)" font-family="sans-serif">ACTED_IN</text></g><g class="relationship" transform="translate(226.36502570771614 -111.65946654659362) rotate(442.0687443159694)"><path class="outline" fill="#A5ABB6" stroke="none" d="M 25 0.5 L 31.731074324028057 0.5 L 31.731074324028057 -0.5 L 25 -0.5 Z M 77.29357432402806 0.5 L 84.02464864805611 0.5 L 84.02464864805611 3.5 L 91.02464864805611 0 L 84.02464864805611 -3.5 L 84.02464864805611 -0.5 L 77.29357432402806 -0.5 Z"/><text text-anchor="middle" pointer-events="none" font-size="8px" fill="#000000" x="54.51232432402806" y="3" font-family="sans-serif">ACTED_IN</text></g><g class="relationship" transform="translate(358.5870154714017 35.215459347497415) rotate(195.37704654741322)"><path class="outline" fill="#A5ABB6" stroke="none" d="M 25 0.5 L 33.98225246782675 0.5 L 33.98225246782675 -0.5 L 25 -0.5 Z M 79.54475246782675 0.5 L 88.5270049356535 0.5 L 88.5270049356535 3.5 L 95.5270049356535 0 L 88.5270049356535 -3.5 L 88.5270049356535 -0.5 L 79.54475246782675 -0.5 Z"/><text text-anchor="middle" pointer-events="none" font-size="8px" fill="#000000" x="56.76350246782675" y="3" transform="rotate(180 56.76350246782675 0)" font-family="sans-serif">ACTED_IN</text></g><g class="relationship" transform="translate(49.92808675738747 130.81805149891002) rotate(237.69045775746537)"><path class="outline" fill="#A5ABB6" stroke="none" d="M 25 0.5 L 78.20083417473585 0.5 L 78.20083417473585 -0.5 L 25 -0.5 Z M 123.76333417473585 0.5 L 176.9641683494717 0.5 L 176.9641683494717 3.5 L 183.9641683494717 0 L 176.9641683494717 -3.5 L 176.9641683494717 -0.5 L 123.76333417473585 -0.5 Z"/><text text-anchor="middle" pointer-events="none" font-size="8px" fill="#000000" x="100.98208417473585" y="3" transform="rotate(180 100.98208417473585 0)" font-family="sans-serif">ACTED_IN</text></g><g class="relationship" transform="translate(49.92808675738747 130.81805149891002) rotate(264.32275439713163)"><path class="outline" fill="#A5ABB6" stroke="none" d="M 25 0.5 L 73.20212169045024 0.5 L 73.20212169045024 -0.5 L 25 -0.5 Z M 118.76462169045024 0.5 L 166.96674338090048 0.5 L 166.96674338090048 3.5 L 173.96674338090048 0 L 166.96674338090048 -3.5 L 166.96674338090048 -0.5 L 118.76462169045024 -0.5 Z"/><text text-anchor="middle" pointer-events="none" font-size="8px" fill="#000000" x="95.98337169045024" y="3" transform="rotate(180 95.98337169045024 0)" font-family="sans-serif">ACTED_IN</text></g><g class="relationship" transform="translate(49.92808675738747 130.81805149891002) rotate(221.94578411355826)"><path class="outline" fill="#A5ABB6" stroke="none" d="M 25 0.5 L 93.09878314899346 0.5 L 93.09878314899346 -0.5 L 25 -0.5 Z M 138.66128314899345 0.5 L 206.76006629798692 0.5 L 206.76006629798692 3.5 L 213.76006629798692 0 L 206.76006629798692 -3.5 L 206.76006629798692 -0.5 L 138.66128314899345 -0.5 Z"/><text text-anchor="middle" pointer-events="none" font-size="8px" fill="#000000" x="115.88003314899346" y="3" transform="rotate(180 115.88003314899346 0)" font-family="sans-serif">ACTED_IN</text></g><g class="relationship" transform="translate(-158.0015384618506 123.943731905769) rotate(299.5530094375709)"><path class="outline" fill="#A5ABB6" stroke="none" d="M 25 0.5 L 71.27971600572468 0.5 L 71.27971600572468 -0.5 L 25 -0.5 Z M 116.84221600572468 0.5 L 163.12193201144936 0.5 L 163.12193201144936 3.5 L 170.12193201144936 0 L 163.12193201144936 -3.5 L 163.12193201144936 -0.5 L 116.84221600572468 -0.5 Z"/><text text-anchor="middle" pointer-events="none" font-size="8px" fill="#000000" x="94.06096600572468" y="3" font-family="sans-serif">ACTED_IN</text></g><g class="relationship" transform="translate(-158.0015384618506 123.943731905769) rotate(314.56661576568405)"><path class="outline" fill="#A5ABB6" stroke="none" d="M 25 0.5 L 107.84780525673949 0.5 L 107.84780525673949 -0.5 L 25 -0.5 Z M 153.4103052567395 0.5 L 236.25811051347898 0.5 L 236.25811051347898 3.5 L 243.25811051347898 0 L 236.25811051347898 -3.5 L 236.25811051347898 -0.5 L 153.4103052567395 -0.5 Z"/><text text-anchor="middle" pointer-events="none" font-size="8px" fill="#000000" x="130.6290552567395" y="3" font-family="sans-serif">ACTED_IN</text></g><g class="relationship" transform="translate(-158.0015384618506 123.943731905769) rotate(281.23825229264156)"><path class="outline" fill="#A5ABB6" stroke="none" d="M 25 0.5 L 51.57124193078458 0.5 L 51.57124193078458 -0.5 L 25 -0.5 Z M 97.13374193078458 0.5 L 123.70498386156916 0.5 L 123.70498386156916 3.5 L 130.70498386156916 0 L 123.70498386156916 -3.5 L 123.70498386156916 -0.5 L 97.13374193078458 -0.5 Z"/><text text-anchor="middle" pointer-events="none" font-size="8px" fill="#000000" x="74.35249193078458" y="3" font-family="sans-serif">ACTED_IN</text></g><g class="relationship" transform="translate(-102.57483181940688 -138.41070162505991) rotate(426.2188323360344)"><path class="outline" fill="#A5ABB6" stroke="none" d="M 25 0.5 L 26.549139863081763 0.5 L 26.549139863081763 -0.5 L 25 -0.5 Z M 67.66242111308176 0.5 L 69.21156097616353 0.5 L 69.21156097616353 3.5 L 76.21156097616353 0 L 69.21156097616353 -3.5 L 69.21156097616353 -0.5 L 67.66242111308176 -0.5 Z"/><text text-anchor="middle" pointer-events="none" font-size="8px" fill="#000000" x="47.10578048808176" y="3" font-family="sans-serif">ACTED…</text></g><g class="relationship" transform="translate(-102.57483181940688 -138.41070162505991) rotate(388.20682704972853)"><path class="outline" fill="#A5ABB6" stroke="none" d="M 25 0.5 L 49.07798456807859 0.5 L 49.07798456807859 -0.5 L 25 -0.5 Z M 94.64048456807859 0.5 L 118.71846913615718 0.5 L 118.71846913615718 3.5 L 125.71846913615718 0 L 118.71846913615718 -3.5 L 118.71846913615718 -0.5 L 94.64048456807859 -0.5 Z"/><text text-anchor="middle" pointer-events="none" font-size="8px" fill="#000000" x="71.85923456807859" y="3" font-family="sans-serif">ACTED_IN</text></g><g class="relationship" transform="translate(-102.57483181940688 -138.41070162505991) rotate(462.88594891623694)"><path class="outline" fill="#A5ABB6" stroke="none" d="M 25 0.5 L 29.95247094996155 0.5 L 29.95247094996155 -0.5 L 25 -0.5 Z M 75.51497094996155 0.5 L 80.4674418999231 0.5 L 80.4674418999231 3.5 L 87.4674418999231 0 L 80.4674418999231 -3.5 L 80.4674418999231 -0.5 L 75.51497094996155 -0.5 Z"/><text text-anchor="middle" pointer-events="none" font-size="8px" fill="#000000" x="52.73372094996155" y="3" transform="rotate(180 52.73372094996155 0)" font-family="sans-serif">ACTED_IN</text></g><g class="relationship" transform="translate(-229.5384025087073 -91.28880345713051) rotate(391.5325859751609)"><path class="outline" fill="#A5ABB6" stroke="none" d="M 25 0.5 L 33.48465605046584 0.5 L 33.48465605046584 -0.5 L 25 -0.5 Z M 79.04715605046584 0.5 L 87.53181210093167 0.5 L 87.53181210093167 3.5 L 94.53181210093167 0 L 87.53181210093167 -3.5 L 87.53181210093167 -0.5 L 79.04715605046584 -0.5 Z"/><text text-anchor="middle" pointer-events="none" font-size="8px" fill="#000000" x="56.26590605046584" y="3" font-family="sans-serif">ACTED_IN</text></g></g><g class="layer nodes"><g class="node" transform="translate(126.58396979521292,11.50905892617979)"><circle class="outline" cx="0" cy="0" r="25" fill="#F79767" stroke="#f36924" stroke-width="2px"/><text text-anchor="middle" pointer-events="none" font-family="sans-serif" dy="1.5625" font-size="25" fill="#FFFFFF"/><text text-anchor="middle" pointer-events="none" font-family="sans-serif" dy="1.5625" font-size="25" fill="#FFFFFF"/><text text-anchor="middle" pointer-events="none" x="0" y="0" font-size="10px" fill="#FFFFFF" font-family="sans-serif"> Hugo</text><text text-anchor="middle" pointer-events="none" x="0" y="10" font-size="10px" fill="#FFFFFF" font-family="sans-serif"> Weaving</text></g><g class="node" transform="translate(63.382131512812826,248.60783996220758)"><circle class="outline" cx="0" cy="0" r="25" fill="#F79767" stroke="#f36924" stroke-width="2px"/><text text-anchor="middle" pointer-events="none" font-family="sans-serif" dy="1.5625" font-size="25" fill="#FFFFFF"/><text text-anchor="middle" pointer-events="none" font-family="sans-serif" dy="1.5625" font-size="25" fill="#FFFFFF"/><text text-anchor="middle" pointer-events="none" x="0" y="0" font-size="10px" fill="#FFFFFF" font-family="sans-serif"> Tom</text><text text-anchor="middle" pointer-events="none" x="0" y="10" font-size="10px" fill="#FFFFFF" font-family="sans-serif"> Hanks</text></g><g class="node" transform="translate(145.26692882082492,148.98681760143893)"><circle class="outline" cx="0" cy="0" r="25" fill="#57C7E3" stroke="#23b3d7" stroke-width="2px"/><text text-anchor="middle" pointer-events="none" font-family="sans-serif" dy="1.5625" font-size="25" fill="#2A2C34"/><text text-anchor="middle" pointer-events="none" font-family="sans-serif" dy="1.5625" font-size="25" fill="#2A2C34"/><text text-anchor="middle" pointer-events="none" x="0" y="0" font-size="10px" fill="#2A2C34" font-family="sans-serif"> Cloud</text><text text-anchor="middle" pointer-events="none" x="0" y="10" font-size="10px" fill="#2A2C34" font-family="sans-serif"> Atlas</text></g><g class="node" transform="translate(144.18032787893353,274.7206135451349)"><circle class="outline" cx="0" cy="0" r="25" fill="#F79767" stroke="#f36924" stroke-width="2px"/><text text-anchor="middle" pointer-events="none" font-family="sans-serif" dy="1.5625" font-size="25" fill="#FFFFFF"/><text text-anchor="middle" pointer-events="none" font-family="sans-serif" dy="1.5625" font-size="25" fill="#FFFFFF"/><text text-anchor="middle" pointer-events="none" x="0" y="0" font-size="10px" fill="#FFFFFF" font-family="sans-serif"> Jim</text><text text-anchor="middle" pointer-events="none" x="0" y="10" font-size="10px" fill="#FFFFFF" font-family="sans-serif"> Broadb…</text></g><g class="node" transform="translate(223.33561479461025,243.03392090223494)"><circle class="outline" cx="0" cy="0" r="25" fill="#F79767" stroke="#f36924" stroke-width="2px"/><text text-anchor="middle" pointer-events="none" font-family="sans-serif" dy="1.5625" font-size="25" fill="#FFFFFF"/><text text-anchor="middle" pointer-events="none" font-family="sans-serif" dy="1.5625" font-size="25" fill="#FFFFFF"/><text text-anchor="middle" pointer-events="none" x="0" y="0" font-size="10px" fill="#FFFFFF" font-family="sans-serif"> Halle</text><text text-anchor="middle" pointer-events="none" x="0" y="10" font-size="10px" fill="#FFFFFF" font-family="sans-serif"> Berry</text></g><g class="node" transform="translate(302.54708119670437,107.529684363355)"><circle class="outline" cx="0" cy="0" r="25" fill="#F79767" stroke="#f36924" stroke-width="2px"/><text text-anchor="middle" pointer-events="none" font-family="sans-serif" dy="1.5625" font-size="25" fill="#FFFFFF"/><text text-anchor="middle" pointer-events="none" x="0" y="5" font-size="10px" fill="#FFFFFF" font-family="sans-serif"> John Hurt</text></g><g class="node" transform="translate(242.3746709478634,3.2553295120058134)"><circle class="outline" cx="0" cy="0" r="25" fill="#57C7E3" stroke="#23b3d7" stroke-width="2px"/><text text-anchor="middle" pointer-events="none" font-family="sans-serif" dy="1.5625" font-size="25" fill="#2A2C34"/><text text-anchor="middle" pointer-events="none" font-family="sans-serif" dy="1.5625" font-size="25" fill="#2A2C34"/><text text-anchor="middle" pointer-events="none" x="0" y="0" font-size="10px" fill="#2A2C34" font-family="sans-serif"> V for</text><text text-anchor="middle" pointer-events="none" x="0" y="10" font-size="10px" fill="#2A2C34" font-family="sans-serif"> Vendetta</text></g><g class="node" transform="translate(332.17958264317116,-69.55155382200923)"><circle class="outline" cx="0" cy="0" r="25" fill="#F79767" stroke="#f36924" stroke-width="2px"/><text text-anchor="middle" pointer-events="none" font-family="sans-serif" dy="1.5625" font-size="25" fill="#FFFFFF"/><text text-anchor="middle" pointer-events="none" font-family="sans-serif" dy="1.5625" font-size="25" fill="#FFFFFF"/><text text-anchor="middle" pointer-events="none" x="0" y="0" font-size="10px" fill="#FFFFFF" font-family="sans-serif"> Stephen</text><text text-anchor="middle" pointer-events="none" x="0" y="10" font-size="10px" fill="#FFFFFF" font-family="sans-serif"> Rea</text></g><g class="node" transform="translate(226.36502570771614,-111.65946654659362)"><circle class="outline" cx="0" cy="0" r="25" fill="#F79767" stroke="#f36924" stroke-width="2px"/><text text-anchor="middle" pointer-events="none" font-family="sans-serif" dy="1.5625" font-size="25" fill="#FFFFFF"/><text text-anchor="middle" pointer-events="none" font-family="sans-serif" dy="1.5625" font-size="25" fill="#FFFFFF"/><text text-anchor="middle" pointer-events="none" x="0" y="0" font-size="10px" fill="#FFFFFF" font-family="sans-serif"> Natalie</text><text text-anchor="middle" pointer-events="none" x="0" y="10" font-size="10px" fill="#FFFFFF" font-family="sans-serif"> Portman</text></g><g class="node" transform="translate(358.5870154714017,35.215459347497415)"><circle class="outline" cx="0" cy="0" r="25" fill="#F79767" stroke="#f36924" stroke-width="2px"/><text text-anchor="middle" pointer-events="none" font-family="sans-serif" dy="1.5625" font-size="25" fill="#FFFFFF"/><text text-anchor="middle" pointer-events="none" x="0" y="5" font-size="10px" fill="#FFFFFF" font-family="sans-serif"> Ben Miles</text></g><g class="node" transform="translate(49.92808675738747,130.81805149891002)"><circle class="outline" cx="0" cy="0" r="25" fill="#F79767" stroke="#f36924" stroke-width="2px"/><text text-anchor="middle" pointer-events="none" font-family="sans-serif" dy="1.5625" font-size="25" fill="#FFFFFF"/><text text-anchor="middle" pointer-events="none" font-family="sans-serif" dy="1.5625" font-size="25" fill="#FFFFFF"/><text text-anchor="middle" pointer-events="none" x="0" y="0" font-size="10px" fill="#FFFFFF" font-family="sans-serif"> Laurence</text><text text-anchor="middle" pointer-events="none" x="0" y="10" font-size="10px" fill="#FFFFFF" font-family="sans-serif"> Fishbur…</text></g><g class="node" transform="translate(-61.76182248311149,-45.79278573322432)"><circle class="outline" cx="0" cy="0" r="25" fill="#57C7E3" stroke="#23b3d7" stroke-width="2px"/><text text-anchor="middle" pointer-events="none" font-family="sans-serif" dy="1.5625" font-size="25" fill="#2A2C34"/><text text-anchor="middle" pointer-events="none" font-family="sans-serif" dy="1.5625" font-size="25" fill="#2A2C34"/><text text-anchor="middle" pointer-events="none" font-family="sans-serif" dy="1.5625" font-size="25" fill="#2A2C34"/><text text-anchor="middle" pointer-events="none" x="0" y="-5" font-size="10px" fill="#2A2C34" font-family="sans-serif"> The</text><text text-anchor="middle" pointer-events="none" x="0" y="5" font-size="10px" fill="#2A2C34" font-family="sans-serif"> Matrix</text><text text-anchor="middle" pointer-events="none" x="0" y="15" font-size="10px" fill="#2A2C34" font-family="sans-serif"> Revol…</text></g><g class="node" transform="translate(-158.0015384618506,123.943731905769)"><circle class="outline" cx="0" cy="0" r="25" fill="#F79767" stroke="#f36924" stroke-width="2px"/><text text-anchor="middle" pointer-events="none" font-family="sans-serif" dy="1.5625" font-size="25" fill="#FFFFFF"/><text text-anchor="middle" pointer-events="none" x="0" y="5" font-size="10px" fill="#FFFFFF" font-family="sans-serif"> Carrie-A…</text></g><g class="node" transform="translate(-102.57483181940688,-138.41070162505991)"><circle class="outline" cx="0" cy="0" r="25" fill="#F79767" stroke="#f36924" stroke-width="2px"/><text text-anchor="middle" pointer-events="none" font-family="sans-serif" dy="1.5625" font-size="25" fill="#FFFFFF"/><text text-anchor="middle" pointer-events="none" font-family="sans-serif" dy="1.5625" font-size="25" fill="#FFFFFF"/><text text-anchor="middle" pointer-events="none" x="0" y="0" font-size="10px" fill="#FFFFFF" font-family="sans-serif"> Keanu</text><text text-anchor="middle" pointer-events="none" x="0" y="10" font-size="10px" fill="#FFFFFF" font-family="sans-serif"> Reeves</text></g><g class="node" transform="translate(30.245387940574638,-67.17274712286365)"><circle class="outline" cx="0" cy="0" r="25" fill="#57C7E3" stroke="#23b3d7" stroke-width="2px"/><text text-anchor="middle" pointer-events="none" font-family="sans-serif" dy="1.5625" font-size="25" fill="#2A2C34"/><text text-anchor="middle" pointer-events="none" font-family="sans-serif" dy="1.5625" font-size="25" fill="#2A2C34"/><text text-anchor="middle" pointer-events="none" font-family="sans-serif" dy="1.5625" font-size="25" fill="#2A2C34"/><text text-anchor="middle" pointer-events="none" x="0" y="-5" font-size="10px" fill="#2A2C34" font-family="sans-serif"> The</text><text text-anchor="middle" pointer-events="none" x="0" y="5" font-size="10px" fill="#2A2C34" font-family="sans-serif"> Matrix</text><text text-anchor="middle" pointer-events="none" x="0" y="15" font-size="10px" fill="#2A2C34" font-family="sans-serif"> Reloa…</text></g><g class="node" transform="translate(-229.5384025087073,-91.28880345713051)"><circle class="outline" cx="0" cy="0" r="25" fill="#F79767" stroke="#f36924" stroke-width="2px"/><text text-anchor="middle" pointer-events="none" font-family="sans-serif" dy="1.5625" font-size="25" fill="#FFFFFF"/><text text-anchor="middle" pointer-events="none" font-family="sans-serif" dy="1.5625" font-size="25" fill="#FFFFFF"/><text text-anchor="middle" pointer-events="none" x="0" y="0" font-size="10px" fill="#FFFFFF" font-family="sans-serif"> Emil</text><text text-anchor="middle" pointer-events="none" x="0" y="10" font-size="10px" fill="#FFFFFF" font-family="sans-serif"> Eifrem</text></g><g class="node" transform="translate(-127.6563153801942,-28.775649429594004)"><circle class="outline" cx="0" cy="0" r="25" fill="#57C7E3" stroke="#23b3d7" stroke-width="2px"/><text text-anchor="middle" pointer-events="none" font-family="sans-serif" dy="1.5625" font-size="25" fill="#2A2C34"/><text text-anchor="middle" pointer-events="none" font-family="sans-serif" dy="1.5625" font-size="25" fill="#2A2C34"/><text text-anchor="middle" pointer-events="none" x="0" y="0" font-size="10px" fill="#2A2C34" font-family="sans-serif"> The</text><text text-anchor="middle" pointer-events="none" x="0" y="10" font-size="10px" fill="#2A2C34" font-family="sans-serif"> Matrix</text></g></g></svg>