<svg xmlns="http://www.w3.org/2000/svg" width="432.796142578125" height="415.2177734375" viewBox="-439.3970947265625 -63.20753479003906 432.796142578125 415.2177734375"><title>Neo4j Graph Visualization</title><desc>Created using Neo4j (http://www.neo4j.com/)</desc><g class="layer relationships"><g class="relationship" transform="translate(-35.60095189503261 240.82014988468813) rotate(538.7098667970168)"><path class="outline" fill="#A5ABB6" stroke="none" d="M 25 0.5 L 56.75662045515135 0.5 L 56.75662045515135 -0.5 L 25 -0.5 Z M 103.64724545515135 0.5 L 135.4038659103027 0.5 L 135.4038659103027 3.5 L 142.4038659103027 0 L 135.4038659103027 -3.5 L 135.4038659103027 -0.5 L 103.64724545515135 -0.5 Z"/><text text-anchor="middle" pointer-events="none" font-size="8px" fill="#000000" x="80.20193295515135" y="3" transform="rotate(180 80.20193295515135 0)" font-family="sans-serif">DIRECTED</text></g><g class="relationship" transform="translate(-44.66990103666092 85.93566558394654) rotate(197.15226556274837)"><path class="outline" fill="#A5ABB6" stroke="none" d="M 24.018736134675446,6.953439040707552 L 24.277555179777966,5.987513214418485 A 243.8578776394911 243.8578776394911 0 0 0 59.21441131039376,12.663277195679342 L 59.098859550600196,13.656578655865843 A 244.8578776394911 244.8578776394911 0 0 1 24.018736134675446,6.953439040707552 Z M 110.88651931641255,14.167053055451788 L 110.79057018325929,13.171666816925693 A 243.8578776394911 243.8578776394911 0 0 0 145.85223203214807,7.185882873362643 L 145.13304738590818,4.273362754185301 L 152.7679764179352,5.993205385332445 L 146.81114489380127,11.069243032265765 L 146.0919602475614,8.156722913088423 A 244.8578776394911 244.8578776394911 0 0 1 110.88651931641255,14.167053055451788"/><text text-anchor="middle" pointer-events="none" font-size="8px" fill="#000000" x="84.98408339852824" y="17.784898642458103" transform="rotate(180 84.98408339852824 14.784898642458103)" font-family="sans-serif">PRODUCED</text></g><g class="relationship" transform="translate(-44.66990103666092 85.93566558394654) rotate(197.15226556274837)"><path class="outline" fill="#A5ABB6" stroke="none" d="M 24.018736134675446,-6.953439040707552 L 24.277555179777966,-5.987513214418485 A 243.8578776394911 243.8578776394911 0 0 1 67.16213129165732,-13.456157899752554 L 67.07917113832812,-14.452710764862871 A 244.8578776394911 244.8578776394911 0 0 0 24.018736134675446,-6.953439040707552 Z M 102.89206481095408,-14.805720834783784 L 102.82876504396592,-13.807726275931259 A 243.8578776394911 243.8578776394911 0 0 1 145.85223203214807,-7.185882873362643 L 145.13304738590818,-4.273362754185301 L 152.7679764179352,-5.993205385332445 L 146.81114489380127,-11.069243032265765 L 146.0919602475614,-8.156722913088423 A 244.8578776394911 244.8578776394911 0 0 0 102.89206481095408,-14.805720834783784"/><text text-anchor="middle" pointer-events="none" font-size="8px" fill="#000000" x="84.9840833985282" y="-11.784898642458074" transform="rotate(180 84.9840833985282 -14.784898642458074)" font-family="sans-serif">WROTE</text></g><g class="relationship" transform="translate(-44.66990103666092 85.93566558394654) rotate(494.9347168183965)"><path class="outline" fill="#A5ABB6" stroke="none" d="M 25 0.5 L 85.11212529128092 0.5 L 85.11212529128092 -0.5 L 25 -0.5 Z M 132.0027502912809 0.5 L 192.11487558256184 0.5 L 192.11487558256184 3.5 L 199.11487558256184 0 L 192.11487558256184 -3.5 L 192.11487558256184 -0.5 L 132.0027502912809 -0.5 Z"/><text text-anchor="middle" pointer-events="none" font-size="8px" fill="#000000" x="108.55743779128092" y="3" transform="rotate(180 108.55743779128092 0)" font-family="sans-serif">DIRECTED</text></g><g class="relationship" transform="translate(-44.66990103666092 85.93566558394654) rotate(510.440905603655)"><path class="outline" fill="#A5ABB6" stroke="none" d="M 25 0.5 L 65.09818463271854 0.5 L 65.09818463271854 -0.5 L 25 -0.5 Z M 111.98880963271854 0.5 L 152.08699426543708 0.5 L 152.08699426543708 3.5 L 159.08699426543708 0 L 152.08699426543708 -3.5 L 152.08699426543708 -0.5 L 111.98880963271854 -0.5 Z"/><text text-anchor="middle" pointer-events="none" font-size="8px" fill="#000000" x="88.54349713271854" y="3" transform="rotate(180 88.54349713271854 0)" font-family="sans-serif">DIRECTED</text></g><g class="relationship" transform="translate(-44.66990103666092 85.93566558394654) rotate(481.697663106184)"><path class="outline" fill="#A5ABB6" stroke="none" d="M 25 0.5 L 112.37387539621724 0.5 L 112.37387539621724 -0.5 L 25 -0.5 Z M 159.26450039621724 0.5 L 246.6383757924345 0.5 L 246.6383757924345 3.5 L 253.6383757924345 0 L 246.6383757924345 -3.5 L 246.6383757924345 -0.5 L 159.26450039621724 -0.5 Z"/><text text-anchor="middle" pointer-events="none" font-size="8px" fill="#000000" x="135.81918789621724" y="3" transform="rotate(180 135.81918789621724 0)" font-family="sans-serif">DIRECTED</text></g><g class="relationship" transform="translate(-44.66990103666092 85.93566558394654) rotate(534.7879698416405)"><path class="outline" fill="#A5ABB6" stroke="none" d="M 25 0.5 L 54.43276402740352 0.5 L 54.43276402740352 -0.5 L 25 -0.5 Z M 101.32338902740352 0.5 L 130.75615305480704 0.5 L 130.75615305480704 3.5 L 137.75615305480704 0 L 130.75615305480704 -3.5 L 130.75615305480704 -0.5 L 101.32338902740352 -0.5 Z"/><text text-anchor="middle" pointer-events="none" font-size="8px" fill="#000000" x="77.87807652740352" y="3" transform="rotate(180 77.87807652740352 0)" font-family="sans-serif">DIRECTED</text></g><g class="relationship" transform="translate(-410.39709850228223 133.91986206759864) rotate(332.990346520501)"><path class="outline" fill="#A5ABB6" stroke="none" d="M 24.018736134675446,6.953439040707552 L 24.277555179777966,5.987513214418485 A 328.921280808595 328.921280808595 0 0 0 80.97220084701905,15.96371126727081 L 80.8857471944137,16.95996714100562 A 329.921280808595 329.921280808595 0 0 1 24.018736134675446,6.953439040707552 Z M 132.69057339747718,17.372727850182514 L 132.62000527180837,16.37522088798147 A 328.921280808595 328.921280808595 0 0 0 189.46641596484622,7.303673818036923 L 188.73623120353662,4.393892002444687 L 196.37760432811302,6.084873010913251 L 190.43999564659234,11.18338290549324 L 189.70981088528274,8.273601089901003 A 329.921280808595 329.921280808595 0 0 1 132.69057339747718,17.372727850182514"/><text text-anchor="middle" pointer-events="none" font-size="8px" fill="#000000" x="106.78402964110671" y="20.68477827465722" font-family="sans-serif">PRODUCED</text></g><g class="relationship" transform="translate(-410.39709850228223 133.91986206759864) rotate(332.990346520501)"><path class="outline" fill="#A5ABB6" stroke="none" d="M 24.018736134675446,-6.953439040707552 L 24.277555179777966,-5.987513214418485 A 328.921280808595 328.921280808595 0 0 1 88.9416463155939,-16.557840856615485 L 88.87942169872919,-17.555903027552745 A 329.921280808595 329.921280808595 0 0 0 24.018736134675446,-6.953439040707552 Z M 124.68841798287421,-17.841215184439875 L 124.64210459880614,-16.84228822491974 A 328.921280808595 328.921280808595 0 0 1 189.46641596484622,-7.303673818036923 L 188.73623120353662,-4.393892002444687 L 196.37760432811302,-6.084873010913251 L 190.43999564659234,-11.18338290549324 L 189.70981088528274,-8.273601089901003 A 329.921280808595 329.921280808595 0 0 0 124.68841798287421,-17.841215184439875"/><text text-anchor="middle" pointer-events="none" font-size="8px" fill="#000000" x="106.78402964110668" y="-14.68477827465722" font-family="sans-serif">WROTE</text></g><g class="relationship" transform="translate(-410.39709850228223 133.91986206759864) rotate(388.0805644251111)"><path class="outline" fill="#A5ABB6" stroke="none" d="M 25 0.5 L 90.60986731102797 0.5 L 90.60986731102797 -0.5 L 25 -0.5 Z M 137.50049231102798 0.5 L 203.11035962205594 0.5 L 203.11035962205594 3.5 L 210.11035962205594 0 L 203.11035962205594 -3.5 L 203.11035962205594 -0.5 L 137.50049231102798 -0.5 Z"/><text text-anchor="middle" pointer-events="none" font-size="8px" fill="#000000" x="114.05517981102797" y="3" font-family="sans-serif">DIRECTED</text></g><g class="relationship" transform="translate(-410.39709850228223 133.91986206759864) rotate(371.7673611925696)"><path class="outline" fill="#A5ABB6" stroke="none" d="M 25 0.5 L 78.0613430899559 0.5 L 78.0613430899559 -0.5 L 25 -0.5 Z M 124.9519680899559 0.5 L 178.0133111799118 0.5 L 178.0133111799118 3.5 L 185.0133111799118 0 L 178.0133111799118 -3.5 L 178.0133111799118 -0.5 L 124.9519680899559 -0.5 Z"/><text text-anchor="middle" pointer-events="none" font-size="8px" fill="#000000" x="101.5066555899559" y="3" font-family="sans-serif">DIRECTED</text></g><g class="relationship" transform="translate(-410.39709850228223 133.91986206759864) rotate(400.7667788037023)"><path class="outline" fill="#A5ABB6" stroke="none" d="M 25 0.5 L 117.84468490637519 0.5 L 117.84468490637519 -0.5 L 25 -0.5 Z M 164.7353099063752 0.5 L 257.5799948127504 0.5 L 257.5799948127504 3.5 L 264.5799948127504 0 L 257.5799948127504 -3.5 L 257.5799948127504 -0.5 L 164.7353099063752 -0.5 Z"/><text text-anchor="middle" pointer-events="none" font-size="8px" fill="#000000" x="141.2899974063752" y="3" font-family="sans-serif">DIRECTED</text></g><g class="relationship" transform="translate(-410.39709850228223 133.91986206759864) rotate(350.74078415064525)"><path class="outline" fill="#A5ABB6" stroke="none" d="M 25 0.5 L 76.22088389544622 0.5 L 76.22088389544622 -0.5 L 25 -0.5 Z M 123.11150889544622 0.5 L 174.33239279089244 0.5 L 174.33239279089244 3.5 L 181.33239279089244 0 L 174.33239279089244 -3.5 L 174.33239279089244 -0.5 L 123.11150889544622 -0.5 Z"/><text text-anchor="middle" pointer-events="none" font-size="8px" fill="#000000" x="99.66619639544622" y="3" font-family="sans-serif">DIRECTED</text></g><g class="relationship" transform="translate(-347.4853989986119 -34.20753385017282) rotate(386.9434637915712)"><path class="outline" fill="#A5ABB6" stroke="none" d="M 25 0.5 L 48.01673120205686 0.5 L 48.01673120205686 -0.5 L 25 -0.5 Z M 94.90735620205686 0.5 L 117.92408740411372 0.5 L 117.92408740411372 3.5 L 124.92408740411372 0 L 117.92408740411372 -3.5 L 117.92408740411372 -0.5 L 94.90735620205686 -0.5 Z"/><text text-anchor="middle" pointer-events="none" font-size="8px" fill="#000000" x="71.46204370205686" y="3" font-family="sans-serif">DIRECTED</text></g></g><g class="layer nodes"><g class="node" transform="translate(-202.96238116658398,244.58927629515944)"><circle class="outline" cx="0" cy="0" r="25" fill="#57C7E3" stroke="#23b3d7" stroke-width="2px"/><text text-anchor="middle" pointer-events="none" font-family="sans-serif" dy="1.5625" font-size="25" fill="#2A2C34"/><text text-anchor="middle" pointer-events="none" font-family="sans-serif" dy="1.5625" font-size="25" fill="#2A2C34"/><text text-anchor="middle" pointer-events="none" x="0" y="0" font-size="10px" fill="#2A2C34" font-family="sans-serif"> Cloud</text><text text-anchor="middle" pointer-events="none" x="0" y="10" font-size="10px" fill="#2A2C34" font-family="sans-serif"> Atlas</text></g><g class="node" transform="translate(-35.60095189503261,240.82014988468813)"><circle class="outline" cx="0" cy="0" r="25" fill="#F79767" stroke="#f36924" stroke-width="2px"/><text text-anchor="middle" pointer-events="none" font-family="sans-serif" dy="1.5625" font-size="25" fill="#FFFFFF"/><text text-anchor="middle" pointer-events="none" font-family="sans-serif" dy="1.5625" font-size="25" fill="#FFFFFF"/><text text-anchor="middle" pointer-events="none" x="0" y="0" font-size="10px" fill="#FFFFFF" font-family="sans-serif"> Tom</text><text text-anchor="middle" pointer-events="none" x="0" y="10" font-size="10px" fill="#FFFFFF" font-family="sans-serif"> Tykwer</text></g><g class="node" transform="translate(-44.66990103666092,85.93566558394654)"><circle class="outline" cx="0" cy="0" r="25" fill="#F79767" stroke="#f36924" stroke-width="2px"/><text text-anchor="middle" pointer-events="none" font-family="sans-serif" dy="1.5625" font-size="25" fill="#FFFFFF"/><text text-anchor="middle" pointer-events="none" font-family="sans-serif" dy="1.5625" font-size="25" fill="#FFFFFF"/><text text-anchor="middle" pointer-events="none" x="0" y="0" font-size="10px" fill="#FFFFFF" font-family="sans-serif"> Lana</text><text text-anchor="middle" pointer-events="none" x="0" y="10" font-size="10px" fill="#FFFFFF" font-family="sans-serif"> Wacho…</text></g><g class="node" transform="translate(-410.39709850228223,133.91986206759864)"><circle class="outline" cx="0" cy="0" r="25" fill="#F79767" stroke="#f36924" stroke-width="2px"/><text text-anchor="middle" pointer-events="none" font-family="sans-serif" dy="1.5625" font-size="25" fill="#FFFFFF"/><text text-anchor="middle" pointer-events="none" font-family="sans-serif" dy="1.5625" font-size="25" fill="#FFFFFF"/><text text-anchor="middle" pointer-events="none" x="0" y="0" font-size="10px" fill="#FFFFFF" font-family="sans-serif"> Lilly</text><text text-anchor="middle" pointer-events="none" x="0" y="10" font-size="10px" fill="#FFFFFF" font-family="sans-serif"> Wacho…</text></g><g class="node" transform="translate(-213.8349622476169,33.72473197560843)"><circle class="outline" cx="0" cy="0" r="25" fill="#57C7E3" stroke="#23b3d7" stroke-width="2px"/><text text-anchor="middle" pointer-events="none" font-family="sans-serif" dy="1.5625" font-size="25" fill="#2A2C34"/><text text-anchor="middle" pointer-events="none" font-family="sans-serif" dy="1.5625" font-size="25" fill="#2A2C34"/><text text-anchor="middle" pointer-events="none" x="0" y="0" font-size="10px" fill="#2A2C34" font-family="sans-serif"> V for</text><text text-anchor="middle" pointer-events="none" x="0" y="10" font-size="10px" fill="#2A2C34" font-family="sans-serif"> Vendetta</text></g><g class="node" transform="translate(-347.4853989986119,-34.20753385017282)"><circle class="outline" cx="0" cy="0" r="25" fill="#F79767" stroke="#f36924" stroke-width="2px"/><text text-anchor="middle" pointer-events="none" font-family="sans-serif" dy="1.5625" font-size="25" fill="#FFFFFF"/><text text-anchor="middle" pointer-events="none" font-family="sans-serif" dy="1.5625" font-size="25" fill="#FFFFFF"/><text text-anchor="middle" pointer-events="none" x="0" y="0" font-size="10px" fill="#FFFFFF" font-family="sans-serif"> James</text><text text-anchor="middle" pointer-events="none" x="0" y="10" font-size="10px" fill="#FFFFFF" font-family="sans-serif"> Marshall</text></g><g class="node" transform="translate(-204.7974854415249,176.74964121736002)"><circle class="outline" cx="0" cy="0" r="25" fill="#57C7E3" stroke="#23b3d7" stroke-width="2px"/><text text-anchor="middle" pointer-events="none" font-family="sans-serif" dy="1.5625" font-size="25" fill="#2A2C34"/><text text-anchor="middle" pointer-events="none" font-family="sans-serif" dy="1.5625" font-size="25" fill="#2A2C34"/><text text-anchor="middle" pointer-events="none" font-family="sans-serif" dy="1.5625" font-size="25" fill="#2A2C34"/><text text-anchor="middle" pointer-events="none" x="0" y="-5" font-size="10px" fill="#2A2C34" font-family="sans-serif"> The</text><text text-anchor="middle" pointer-events="none" x="0" y="5" font-size="10px" fill="#2A2C34" font-family="sans-serif"> Matrix</text><text text-anchor="middle" pointer-events="none" x="0" y="15" font-size="10px" fill="#2A2C34" font-family="sans-serif"> Revol…</text></g><g class="node" transform="translate(-191.07679909717362,323.0102628408956)"><circle class="outline" cx="0" cy="0" r="25" fill="#57C7E3" stroke="#23b3d7" stroke-width="2px"/><text text-anchor="middle" pointer-events="none" font-family="sans-serif" dy="1.5625" font-size="25" fill="#2A2C34"/><text text-anchor="middle" pointer-events="none" font-family="sans-serif" dy="1.5625" font-size="25" fill="#2A2C34"/><text text-anchor="middle" pointer-events="none" font-family="sans-serif" dy="1.5625" font-size="25" fill="#2A2C34"/><text text-anchor="middle" pointer-events="none" x="0" y="-5" font-size="10px" fill="#2A2C34" font-family="sans-serif"> The</text><text text-anchor="middle" pointer-events="none" x="0" y="5" font-size="10px" fill="#2A2C34" font-family="sans-serif"> Matrix</text><text text-anchor="middle" pointer-events="none" x="0" y="15" font-size="10px" fill="#2A2C34" font-family="sans-serif"> Reloa…</text></g><g class="node" transform="translate(-206.75311386116655,100.72070794728756)"><circle class="outline" cx="0" cy="0" r="25" fill="#57C7E3" stroke="#23b3d7" stroke-width="2px"/><text text-anchor="middle" pointer-events="none" font-family="sans-serif" dy="1.5625" font-size="25" fill="#2A2C34"/><text text-anchor="middle" pointer-events="none" font-family="sans-serif" dy="1.5625" font-size="25" fill="#2A2C34"/><text text-anchor="middle" pointer-events="none" x="0" y="0" font-size="10px" fill="#2A2C34" font-family="sans-serif"> The</text><text text-anchor="middle" pointer-events="none" x="0" y="10" font-size="10px" fill="#2A2C34" font-family="sans-serif"> Matrix</text></g></g></svg>