<svg xmlns="http://www.w3.org/2000/svg" width="217.78636169433594" height="232.67422485351562" viewBox="-13.927474021911621 1.7900943756103516 217.78636169433594 232.67422485351562"><title>Neo4j Graph Visualization</title><desc>Created using Neo4j (http://www.neo4j.com/)</desc><g class="layer relationships"><g class="relationship" transform="translate(174.85889377277988 171.73202863308168) rotate(214.40381670826844)"><path class="outline" fill="#A5ABB6" stroke="none" d="M 25 0.5 L 26.48260807795439 0.5 L 26.48260807795439 -0.5 L 25 -0.5 Z M 73.37323307795438 0.5 L 74.85584115590878 0.5 L 74.85584115590878 3.5 L 81.85584115590878 0 L 74.85584115590878 -3.5 L 74.85584115590878 -0.5 L 73.37323307795438 -0.5 Z"/><text text-anchor="middle" pointer-events="none" font-size="8px" fill="#000000" x="49.92792057795439" y="3" transform="rotate(180 49.92792057795439 0)" font-family="sans-serif">DIRECTED</text></g><g class="relationship" transform="translate(171.56300977530364 40.60698510065412) rotate(500.18424260251106)"><path class="outline" fill="#A5ABB6" stroke="none" d="M 25 0.5 L 33.85834555455214 0.5 L 33.85834555455214 -0.5 L 25 -0.5 Z M 69.63178305455213 0.5 L 78.49012860910427 0.5 L 78.49012860910427 3.5 L 85.49012860910427 0 L 78.49012860910427 -3.5 L 78.49012860910427 -0.5 L 69.63178305455213 -0.5 Z"/><text text-anchor="middle" pointer-events="none" font-size="8px" fill="#000000" x="51.74506430455214" y="3" transform="rotate(180 51.74506430455214 0)" font-family="sans-serif">WROTE</text></g><g class="relationship" transform="translate(15.072525621444628 30.790094419492096) rotate(408.36330724697206)"><path class="outline" fill="#A5ABB6" stroke="none" d="M 25 0.5 L 27.61825091214874 0.5 L 27.61825091214874 -0.5 L 25 -0.5 Z M 73.18075091214874 0.5 L 75.79900182429748 0.5 L 75.79900182429748 3.5 L 82.79900182429748 0 L 75.79900182429748 -3.5 L 75.79900182429748 -0.5 L 73.18075091214874 -0.5 Z"/><text text-anchor="middle" pointer-events="none" font-size="8px" fill="#000000" x="50.39950091214874" y="3" font-family="sans-serif">ACTED_IN</text></g><g class="relationship" transform="translate(38.112397341794164 205.46432530938776) rotate(297.30454786640166)"><path class="outline" fill="#A5ABB6" stroke="none" d="M 25 0.5 L 26.67296169242784 0.5 L 26.67296169242784 -0.5 L 25 -0.5 Z M 72.23546169242783 0.5 L 73.90842338485568 0.5 L 73.90842338485568 3.5 L 80.90842338485568 0 L 73.90842338485568 -3.5 L 73.90842338485568 -0.5 L 72.23546169242783 -0.5 Z"/><text text-anchor="middle" pointer-events="none" font-size="8px" fill="#000000" x="49.45421169242784" y="3" font-family="sans-serif">ACTED_IN</text></g></g><g class="layer nodes"><g class="node" transform="translate(174.85889377277988,171.73202863308168)"><circle class="outline" cx="0" cy="0" r="25" fill="#F79767" stroke="#f36924" stroke-width="2px"/><text text-anchor="middle" pointer-events="none" font-family="sans-serif" dy="1.5625" font-size="25" fill="#FFFFFF"/><text text-anchor="middle" pointer-events="none" font-family="sans-serif" dy="1.5625" font-size="25" fill="#FFFFFF"/><text text-anchor="middle" pointer-events="none" x="0" y="0" font-size="10px" fill="#FFFFFF" font-family="sans-serif"> Joe</text><text text-anchor="middle" pointer-events="none" x="0" y="10" font-size="10px" fill="#FFFFFF" font-family="sans-serif"> Johnston</text></g><g class="node" transform="translate(86.69471855717856,111.35613114335854)"><circle class="outline" cx="0" cy="0" r="25" fill="#57C7E3" stroke="#23b3d7" stroke-width="2px"/><text text-anchor="middle" pointer-events="none" font-family="sans-serif" dy="1.5625" font-size="25" fill="#2A2C34"/><text text-anchor="middle" pointer-events="none" font-family="sans-serif" dy="1.5625" font-size="25" fill="#2A2C34"/><text text-anchor="middle" pointer-events="none" font-family="sans-serif" dy="1.5625" font-size="25" fill="#2A2C34"/><text text-anchor="middle" pointer-events="none" x="0" y="-5" font-size="10px" fill="#2A2C34" font-family="sans-serif"> Captain</text><text text-anchor="middle" pointer-events="none" x="0" y="5" font-size="10px" fill="#2A2C34" font-family="sans-serif"> America:</text><text text-anchor="middle" pointer-events="none" x="0" y="15" font-size="10px" fill="#2A2C34" font-family="sans-serif"> The Fi…</text></g><g class="node" transform="translate(171.56300977530364,40.60698510065412)"><circle class="outline" cx="0" cy="0" r="25" fill="#F79767" stroke="#f36924" stroke-width="2px"/><text text-anchor="middle" pointer-events="none" font-family="sans-serif" dy="1.5625" font-size="25" fill="#FFFFFF"/><text text-anchor="middle" pointer-events="none" x="0" y="5" font-size="10px" fill="#FFFFFF" font-family="sans-serif"> Christop…</text></g><g class="node" transform="translate(15.072525621444628,30.790094419492096)"><circle class="outline" cx="0" cy="0" r="25" fill="#F79767" stroke="#f36924" stroke-width="2px"/><text text-anchor="middle" pointer-events="none" font-family="sans-serif" dy="1.5625" font-size="25" fill="#FFFFFF"/><text text-anchor="middle" pointer-events="none" font-family="sans-serif" dy="1.5625" font-size="25" fill="#FFFFFF"/><text text-anchor="middle" pointer-events="none" font-family="sans-serif" dy="1.5625" font-size="25" fill="#FFFFFF"/><text text-anchor="middle" pointer-events="none" x="0" y="-5" font-size="10px" fill="#FFFFFF" font-family="sans-serif"> Samuel</text><text text-anchor="middle" pointer-events="none" x="0" y="5" font-size="10px" fill="#FFFFFF" font-family="sans-serif"> L.</text><text text-anchor="middle" pointer-events="none" x="0" y="15" font-size="10px" fill="#FFFFFF" font-family="sans-serif"> Jackson</text></g><g class="node" transform="translate(38.112397341794164,205.46432530938776)"><circle class="outline" cx="0" cy="0" r="25" fill="#F79767" stroke="#f36924" stroke-width="2px"/><text text-anchor="middle" pointer-events="none" font-family="sans-serif" dy="1.5625" font-size="25" fill="#FFFFFF"/><text text-anchor="middle" pointer-events="none" font-family="sans-serif" dy="1.5625" font-size="25" fill="#FFFFFF"/><text text-anchor="middle" pointer-events="none" x="0" y="0" font-size="10px" fill="#FFFFFF" font-family="sans-serif"> Chris</text><text text-anchor="middle" pointer-events="none" x="0" y="10" font-size="10px" fill="#FFFFFF" font-family="sans-serif"> Evans</text></g></g></svg>