<svg xmlns="http://www.w3.org/2000/svg" width="237.53758239746094" height="200.80209350585938" viewBox="-13.642264366149902 0.7462635040283203 237.53758239746094 200.80209350585938"><title>Neo4j Graph Visualization</title><desc>Created using Neo4j (http://www.neo4j.com/)</desc><g class="layer relationships"><g class="relationship" transform="translate(15.35773576758656 69.74601955763715) rotate(340.5815914309211)"><path class="outline" fill="#A5ABB6" stroke="none" d="M 25 0.5 L 33.875241562855585 0.5 L 33.875241562855585 -0.5 L 25 -0.5 Z M 79.43774156285559 0.5 L 88.31298312571117 0.5 L 88.31298312571117 3.5 L 95.31298312571117 0 L 88.31298312571117 -3.5 L 88.31298312571117 -0.5 L 79.43774156285559 -0.5 Z"/><text text-anchor="middle" pointer-events="none" font-size="8px" fill="#000000" x="56.656491562855585" y="3" font-family="sans-serif">ACTED_IN</text></g><g class="relationship" transform="translate(15.35773576758656 69.74601955763715) rotate(380.91337928888794)"><path class="outline" fill="#A5ABB6" stroke="none" d="M 25 0.5 L 27.521984521329834 0.5 L 27.521984521329834 -0.5 L 25 -0.5 Z M 62.857922021329834 0.5 L 65.37990654265967 0.5 L 65.37990654265967 3.5 L 72.37990654265967 0 L 65.37990654265967 -3.5 L 65.37990654265967 -0.5 L 62.857922021329834 -0.5 Z"/><text text-anchor="middle" pointer-events="none" font-size="8px" fill="#000000" x="45.189953271329834" y="3" font-family="sans-serif">ACTE…</text></g><g class="relationship" transform="translate(15.35773576758656 69.74601955763715) rotate(418.2181603293899)"><path class="outline" fill="#A5ABB6" stroke="none" d="M 25 0.5 L 34.186466310861576 0.5 L 34.186466310861576 -0.5 L 25 -0.5 Z M 79.74896631086158 0.5 L 88.93543262172315 0.5 L 88.93543262172315 3.5 L 95.93543262172315 0 L 88.93543262172315 -3.5 L 88.93543262172315 -0.5 L 79.74896631086158 -0.5 Z"/><text text-anchor="middle" pointer-events="none" font-size="8px" fill="#000000" x="56.967716310861576" y="3" font-family="sans-serif">ACTED_IN</text></g><g class="relationship" transform="translate(194.89532717831543 132.17016957621792) rotate(237.17597456547463)"><path class="outline" fill="#A5ABB6" stroke="none" d="M 25 0.5 L 34.6607383234774 0.5 L 34.6607383234774 -0.5 L 25 -0.5 Z M 80.2232383234774 0.5 L 89.8839766469548 0.5 L 89.8839766469548 3.5 L 96.8839766469548 0 L 89.8839766469548 -3.5 L 89.8839766469548 -0.5 L 80.2232383234774 -0.5 Z"/><text text-anchor="middle" pointer-events="none" font-size="8px" fill="#000000" x="57.4419883234774" y="3" transform="rotate(180 57.4419883234774 0)" font-family="sans-serif">ACTED_IN</text></g><g class="relationship" transform="translate(194.89532717831543 132.17016957621792) rotate(197.34503355038714)"><path class="outline" fill="#A5ABB6" stroke="none" d="M 25 0.5 L 25.228300079525965 0.5 L 25.228300079525965 -0.5 L 25 -0.5 Z M 60.564237579525965 0.5 L 60.79253765905193 0.5 L 60.79253765905193 3.5 L 67.79253765905193 0 L 60.79253765905193 -3.5 L 60.79253765905193 -0.5 L 60.564237579525965 -0.5 Z"/><text text-anchor="middle" pointer-events="none" font-size="8px" fill="#000000" x="42.896268829525965" y="3" transform="rotate(180 42.896268829525965 0)" font-family="sans-serif">ACTE…</text></g><g class="relationship" transform="translate(194.89532717831543 132.17016957621792) rotate(520.7834416079854)"><path class="outline" fill="#A5ABB6" stroke="none" d="M 25 0.5 L 35.057752717245265 0.5 L 35.057752717245265 -0.5 L 25 -0.5 Z M 80.62025271724526 0.5 L 90.67800543449053 0.5 L 90.67800543449053 3.5 L 97.67800543449053 0 L 90.67800543449053 -3.5 L 90.67800543449053 -0.5 L 80.62025271724526 -0.5 Z"/><text text-anchor="middle" pointer-events="none" font-size="8px" fill="#000000" x="57.839002717245265" y="3" transform="rotate(180 57.839002717245265 0)" font-family="sans-serif">ACTED_IN</text></g></g><g class="layer nodes"><g class="node" transform="translate(15.35773576758656,69.74601955763715)"><circle class="outline" cx="0" cy="0" r="25" fill="#F79767" stroke="#f36924" stroke-width="2px"/><text text-anchor="middle" pointer-events="none" font-family="sans-serif" dy="1.5625" font-size="25" fill="#FFFFFF"/><text text-anchor="middle" pointer-events="none" font-family="sans-serif" dy="1.5625" font-size="25" fill="#FFFFFF"/><text text-anchor="middle" pointer-events="none" x="0" y="0" font-size="10px" fill="#FFFFFF" font-family="sans-serif"> Keanu</text><text text-anchor="middle" pointer-events="none" x="0" y="10" font-size="10px" fill="#FFFFFF" font-family="sans-serif"> Reeves</text></g><g class="node" transform="translate(194.89532717831543,132.17016957621792)"><circle class="outline" cx="0" cy="0" r="25" fill="#F79767" stroke="#f36924" stroke-width="2px"/><text text-anchor="middle" pointer-events="none" font-family="sans-serif" dy="1.5625" font-size="25" fill="#FFFFFF"/><text text-anchor="middle" pointer-events="none" font-family="sans-serif" dy="1.5625" font-size="25" fill="#FFFFFF"/><text text-anchor="middle" pointer-events="none" x="0" y="0" font-size="10px" fill="#FFFFFF" font-family="sans-serif"> Hugo</text><text text-anchor="middle" pointer-events="none" x="0" y="10" font-size="10px" fill="#FFFFFF" font-family="sans-serif"> Weaving</text></g><g class="node" transform="translate(128.82682182680833,29.746264339728796)"><circle class="outline" cx="0" cy="0" r="25" fill="#57C7E3" stroke="#23b3d7" stroke-width="2px"/><text text-anchor="middle" pointer-events="none" font-family="sans-serif" dy="1.5625" font-size="25" fill="#2A2C34"/><text text-anchor="middle" pointer-events="none" font-family="sans-serif" dy="1.5625" font-size="25" fill="#2A2C34"/><text text-anchor="middle" pointer-events="none" font-family="sans-serif" dy="1.5625" font-size="25" fill="#2A2C34"/><text text-anchor="middle" pointer-events="none" x="0" y="-5" font-size="10px" fill="#2A2C34" font-family="sans-serif"> The</text><text text-anchor="middle" pointer-events="none" x="0" y="5" font-size="10px" fill="#2A2C34" font-family="sans-serif"> Matrix</text><text text-anchor="middle" pointer-events="none" x="0" y="15" font-size="10px" fill="#2A2C34" font-family="sans-serif"> Revol…</text></g><g class="node" transform="translate(106.32236566640016,104.50637493023078)"><circle class="outline" cx="0" cy="0" r="25" fill="#57C7E3" stroke="#23b3d7" stroke-width="2px"/><text text-anchor="middle" pointer-events="none" font-family="sans-serif" dy="1.5625" font-size="25" fill="#2A2C34"/><text text-anchor="middle" pointer-events="none" font-family="sans-serif" dy="1.5625" font-size="25" fill="#2A2C34"/><text text-anchor="middle" pointer-events="none" font-family="sans-serif" dy="1.5625" font-size="25" fill="#2A2C34"/><text text-anchor="middle" pointer-events="none" x="0" y="-5" font-size="10px" fill="#2A2C34" font-family="sans-serif"> The</text><text text-anchor="middle" pointer-events="none" x="0" y="5" font-size="10px" fill="#2A2C34" font-family="sans-serif"> Matrix</text><text text-anchor="middle" pointer-events="none" x="0" y="15" font-size="10px" fill="#2A2C34" font-family="sans-serif"> Reloa…</text></g><g class="node" transform="translate(79.05278209341743,172.54835385483878)"><circle class="outline" cx="0" cy="0" r="25" fill="#57C7E3" stroke="#23b3d7" stroke-width="2px"/><text text-anchor="middle" pointer-events="none" font-family="sans-serif" dy="1.5625" font-size="25" fill="#2A2C34"/><text text-anchor="middle" pointer-events="none" font-family="sans-serif" dy="1.5625" font-size="25" fill="#2A2C34"/><text text-anchor="middle" pointer-events="none" x="0" y="0" font-size="10px" fill="#2A2C34" font-family="sans-serif"> The</text><text text-anchor="middle" pointer-events="none" x="0" y="10" font-size="10px" fill="#2A2C34" font-family="sans-serif"> Matrix</text></g></g></svg>